<?xml version="1.0" standalone="no"?>
<!DOCTYPE svg PUBLIC "-//W3C//DTD SVG 1.1//EN" "http://www.w3.org/Graphics/SVG/1.1/DTD/svg11.dtd" >
<svg xmlns="http://www.w3.org/2000/svg">
<metadata>
Created by FontForge 20120731 at Tue Jun 13 10:14:42 2017
 By admin
</metadata>
<defs>
<font id="iconfont" horiz-adv-x="1024" >
  <font-face 
    font-family="iconfont"
    font-weight="500"
    font-stretch="normal"
    units-per-em="1024"
    panose-1="2 0 6 3 0 0 0 0 0 0"
    ascent="896"
    descent="-128"
    x-height="792"
    bbox="-2 -212 1566.56 896"
    underline-thickness="0"
    underline-position="0"
    unicode-range="U+0078-E7D8"
  />
<missing-glyph 
 />
    <glyph glyph-name=".notdef" 
 />
    <glyph glyph-name=".notdef" 
 />
    <glyph glyph-name=".null" horiz-adv-x="0" 
 />
    <glyph glyph-name="nonmarkingreturn" horiz-adv-x="341" 
 />
    <glyph glyph-name="x" unicode="x" horiz-adv-x="1001" 
d="M281 543q-27 -1 -53 -1h-83q-18 0 -36.5 -6t-32.5 -18.5t-23 -32t-9 -45.5v-76h912v41q0 16 -0.5 30t-0.5 18q0 13 -5 29t-17 29.5t-31.5 22.5t-49.5 9h-133v-97h-438v97zM955 310v-52q0 -23 0.5 -52t0.5 -58t-10.5 -47.5t-26 -30t-33 -16t-31.5 -4.5q-14 -1 -29.5 -0.5
t-29.5 0.5h-32l-45 128h-439l-44 -128h-29h-34q-20 0 -45 1q-25 0 -41 9.5t-25.5 23t-13.5 29.5t-4 30v167h911zM163 247q-12 0 -21 -8.5t-9 -21.5t9 -21.5t21 -8.5q13 0 22 8.5t9 21.5t-9 21.5t-22 8.5zM316 123q-8 -26 -14 -48q-5 -19 -10.5 -37t-7.5 -25t-3 -15t1 -14.5
t9.5 -10.5t21.5 -4h37h67h81h80h64h36q23 0 34 12t2 38q-5 13 -9.5 30.5t-9.5 34.5q-5 19 -11 39h-368zM336 498v228q0 11 2.5 23t10 21.5t20.5 15.5t34 6h188q31 0 51.5 -14.5t20.5 -52.5v-227h-327z" />
    <glyph glyph-name="guanbi" unicode="&#xe630;" 
d="M512 747q-91 0 -174 -35t-142.5 -95t-95 -143t-35.5 -174t35.5 -174t95 -143t142.5 -95.5t174 -35.5t174 35.5t143 95.5t95.5 143t35.5 174t-35.5 174t-95.5 143t-143 95t-174 35zM512.5 -107q-110.5 0 -204.5 54.5t-148.5 148.5t-54.5 204t54.5 204t148.5 148.5
t204.5 54.5t204 -54.5t148 -148.5t54.5 -204t-54.5 -204t-148 -148.5t-204 -54.5zM648 436q-13 13 -31 13t-32 -13l-73 -74l-73 74q-13 13 -31.5 13t-31.5 -13t-13 -31.5t13 -32.5l73 -74l-69 -70v-0.5v-0.5l-2 -1v0q-11 -14 -10.5 -31.5t13 -30t30 -13.5t30.5 11v0l1 1l1 1
l69 70l69 -70q13 -13 31.5 -13t31.5 13t13 32t-13 32l-69 70l73 74q13 14 13 32.5t-13 31.5z" />
    <glyph glyph-name="fenlei44" unicode="&#xe632;" 
d="M956 492q-12 19 -32 46v0q-17 21 -29 35l-0.5 0.5l-0.5 0.5q-28 31 -59 59q-68 64 -144 103q-31 16 -62 28q-16 6 -26 -8q-19 -30 -40 -54q-19 -21 -51 -26q-31 5 -50 26q-22 24 -41 54q-9 14 -26 8q-31 -12 -61 -28q-76 -39 -145 -103q-30 -28 -58 -59l-0.5 -0.5
l-0.5 -0.5q-12 -14 -29 -35v0q-21 -27 -33 -46q-4 -7 -2 -15t10 -12l177 -93q0 -1 0.5 -1t1.5 -1q4 -2 10 -2q12 0 18 9q9 14 23 31l-42 -386q0 -8 6 -14t15 -6h455q9 0 15 6t6 14l-42 386q14 -17 23 -31q6 -9 18 -9q5 0 10 2q1 1 1.5 1t0.5 1l177 93q7 4 10 12q2 8 -3 15z
M116 490q23 26 39 45l141 -71l-5 -7v0v-0.5v-0.5l-26 -36h-0.5h-0.5q-4 -5 -5 -6zM524 41h-218l47 424q2 6 -1 12q-4 10 -15 11l-157 79q19 20 38 38q65 60 136 97q21 11 41 19q17 -24 35 -44q11 -13 23 -22q19 -15 47 -18v-2h1h8v1h2h0.5h0.5h0.5h0.5h3v-1h8v0v2
q29 3 47 18q13 9 24 22q18 20 35 44q20 -8 40 -19q71 -37 136 -97q20 -18 39 -38l-157 -79q-11 -1 -15 -11q-3 -6 -2 -12l47 -424h-194zM765 414q0 1 -4 6h-1h-1l-25 36v0.5v0.5h-1l-5 7l142 71q17 -21 38 -45z" />
    <glyph glyph-name="fenxiang" unicode="&#xe63a;" 
d="M814 144q-72 0 -116 -58l-306 183q5 21 5 42v12l306 185q44 -52 111 -52q60 0 103 43t43 103.5t-43 103t-103.5 42.5t-103 -42.5t-42.5 -103.5q0 -23 7 -46l-303 -157q-23 36 -60.5 57t-80.5 21q-69 0 -118 -48.5t-49 -117.5t49 -118t118 -49q74 0 124 56l318 -165
q-5 -19 -5 -37q0 -60 42.5 -103t103 -43t103.5 43t43 103.5t-43 103t-103 42.5v0zM814 144z" />
    <glyph glyph-name="gouwufenlei" unicode="&#xe64f;" 
d="M801 -10h-579q-9 0 -15 7t-6 16l48 559q1 8 7 13.5t14 5.5h492q8 0 14 -5.5t6 -13.5l40 -559q0 -9 -6 -16t-15 -7v0zM245 32h534l-37 518h-453zM684 629h-42q0 28 -10 50t-24.5 34.5t-32.5 21t-33 11t-27 2.5t-27 -2.5t-33 -11t-33 -21t-24.5 -34.5t-9.5 -50h-42
q0 42 16.5 74.5t43 50.5t54.5 27t55 9t55 -9t54.5 -27t43 -50.5t16.5 -74.5zM323 490.5q0 18.5 13 31.5t32 13t32 -13t13 -31.5t-13 -32t-32 -13.5t-32 13.5t-13 32zM612 490.5q0 18.5 13.5 31.5t32 13t31.5 -13t13 -31.5t-13 -32t-31.5 -13.5t-32 13.5t-13.5 32z" />
    <glyph glyph-name="v3" unicode="&#xe61c;" 
d="M882 640h-289q-7 0 -12 -5t-5 -12v-30q0 -7 5 -12t12 -5h82l-3 -2v0l-289 -289v465q0 8 -5 13t-12 5h-221q-7 0 -12 -5t-5 -13v-29q0 -7 5 -12t12 -5h110v-553q0 -8 5 -14l68 -68q5 -5 12.5 -5t12.5 5l215 216l2 2l289 289h23q7 0 11 5t4 12v30q0 7 -4 12t-11 5zM896 346
v2v19q0 7 -5 12t-12 5h-94q-7 0 -12 -5t-5 -12v-29q0 -7 5 -12t12 -5h47v-65h-48q-7 0 -12 -5t-5 -12v-29q0 -8 5 -13t12 -5h48v-64h-46q-8 0 -13 -5t-5 -12v-30q0 -7 5 -12t13 -5h93q7 0 12 5t5 12v30v0.5v1.5v233z" />
    <glyph glyph-name="yule" unicode="&#xe64c;" 
d="M599 147q-19 71 32 132.5t139 79.5q-31 105 -119.5 172t-201.5 67q-90 0 -167 -44.5t-122 -121.5t-45 -167t45 -167t122 -121.5t167 -44.5q76 0 142 31.5t113 86.5q-85 25 -105 97zM449.5 134q-54.5 0 -93 38.5t-38.5 92.5t38.5 92.5t93 38.5t93 -38.5t38.5 -92.5
t-38.5 -92.5t-93 -38.5zM953 489q-24 49 -56 82.5t-60.5 46t-54 17.5t-40.5 4l-15 -2l-52 3q52 -68 87.5 -127.5t51.5 -96t22.5 -67.5t6 -43.5t-3.5 -21.5q-40 20 -89 7q-46 -13 -71.5 -49t-15.5 -73t49.5 -54.5t85.5 -4.5q35 10 58.5 34t29.5 54q20 31 16.5 76t-19 92
t-36.5 89t-35 67.5t-16 26.5zM449.5 336q-29.5 0 -50.5 -21t-21 -50t21 -50t50.5 -21t50 21t20.5 50t-20.5 50t-50 21z" />
    <glyph glyph-name="v1" unicode="&#xe61d;" 
d="M882 640h-289q-7 0 -12 -5t-5 -12v-30q0 -7 5 -12t12 -5h82l-3 -2v0l-289 -289v465q0 8 -5 13t-12 5h-221q-7 0 -12 -5t-5 -13v-29q0 -7 5 -12t12 -5h110v-553q0 -8 5 -14l68 -68q5 -5 12.5 -5t12.5 5l215 216l2 2l289 289h23q7 0 11 5t4 12v30q0 7 -4 12t-11 5zM878 384
h-28h-3h-61q-7 0 -12 -5t-5 -12v-29q0 -7 5 -12t12 -5h46v-242q0 -7 5.5 -12t12.5 -5h28q8 0 13 5t5 12v288q0 7 -5 12t-13 5z" />
    <glyph glyph-name="left" unicode="&#xe600;" 
d="M668 -16q-13 0 -21 10l-306 363q-15 18 0 35l293 350q7 9 18.5 10t20 -6.5t9.5 -19t-6 -19.5l-278 -332l291 -346q7 -8 6.5 -19.5t-9.5 -18.5q-8 -7 -18 -7v0v0zM668 -16z" />
    <glyph glyph-name="chuandan01" unicode="&#xe6a1;" 
d="M942 812h-430v0h-439q-71 -1 -71 -71q-1 -345 -1 -746q1 -31 17 -39.5t42 7.5q16 9 43 26t50 30.5t43 24.5q39 20 74 21q114 1 665 1q49 0 67.5 18t18.5 66v583q0 42 -18 60.5t-61 18.5zM507 267h-166v0h-155q-44 0 -42 31q1 18 12 24t31 6q37 0 310 1q4 0 11 -1
q34 -1 33 -31q0 -30 -34 -30zM850 418q-2 -1 -6 -1.5t-10 0t-8 0.5h-316v-1h-313q-26 1 -30 3q-21 12 -21 26q-1 15 18 29q5 4 29 4q240 0 635 1h8h10t6 -2q24 -19 24 -30t-26 -29zM840 566h-327v-1h-316q-20 0 -24 1q-14 2 -22.5 10t-5.5 20q3 11 29 30q2 2 5.5 2t8.5 -0.5
t7 -0.5q203 0 631 1h7h7q39 0 38 -33q-2 -29 -38 -29z" />
    <glyph glyph-name="v2" unicode="&#xe61e;" 
d="M882 640h-289q-7 0 -12 -5t-5 -12v-30q0 -7 5 -12t12 -5h82l-3 -2v0l-289 -289v465q0 8 -5 13t-12 5h-221q-7 0 -12 -5t-5 -13v-29q0 -7 5 -12t12 -5h110v-553q0 -8 5 -14l68 -68q5 -5 12.5 -5t12.5 5l215 216l2 2l289 289h23q7 0 11 5t4 12v30q0 7 -4 12t-11 5zM849 192
h1h29q7 0 12 5.5t5 12.5v156q0 8 -5 13t-12 5h-29h-3h-3h-60q-7 0 -12 -5t-5 -13v-28q0 -7 5 -12t12 -5h48v-66h-18v0h-29q-7 0 -12 -5t-5 -12v-157q0 -7 5 -12t12 -5h29q2 0 4 1h61q7 0 12 5t5 12v28q0 7 -5 12.5t-12 5.5h-48v64h18z" />
    <glyph glyph-name="iconfontxinyongqia" unicode="&#xe60a;" 
d="M870 87h-716q-32 0 -54.5 22.5t-22.5 53.5v461q0 32 22.5 54.5t54.5 22.5h716q32 0 54.5 -22.5t22.5 -54.5v-461q0 -31 -22.5 -53.5t-54.5 -22.5zM154 650q-11 0 -18.5 -7.5t-7.5 -18.5v-461q0 -10 7.5 -17.5t18.5 -7.5h716q11 0 18.5 7.5t7.5 17.5v461q0 11 -7.5 18.5
t-18.5 7.5h-716zM121 534h782v-82h-782v82zM574 310q0 -17 12 -29t29 -12t29 12t12 29t-12 29t-29 12t-29 -12t-12 -29zM755 310q0 -17 12 -29t29 -12t29 12t12 29t-12 29t-29 12t-29 -12t-12 -29z" />
    <glyph glyph-name="shouhuodizhi" unicode="&#xe637;" 
d="M518 102q-10 11 -27.5 29.5t-61.5 74t-78 110t-61.5 128t-27.5 135.5q0 36 8.5 66.5t23.5 52t34 38.5t40.5 27.5t42.5 18.5t40.5 11.5t34.5 5.5t23 3h9q5 0 14.5 -0.5t36 -5t51 -12t54 -24t50.5 -39.5t36 -59.5t15 -82.5q0 -62 -26.5 -134t-64 -130.5t-76 -108t-64 -77
t-26.5 -27.5zM698 609q-13 58 -68 96q-1 0 -3.5 2t-3.5 2q-4 3 -17 9l-15 7.5t-16 4.5q-16 4 -19 5q-19 3 -38 3v0v0q-19 0 -37 -3q-35 -6 -65 -23v-1v0q-10 -6 -22 -15q-1 -1 -3 -2.5t-3 -2.5q-3 -3 -12.5 -13t-10.5 -12t-3 -5t-3 -4q-8 -12 -11 -18q0 -2 -1 -4.5t-1 -3.5
q-6 -14 -8 -21q-3 -16 -3 -31q0 -44 19.5 -101t44 -101t56 -91t44 -63t19.5 -25v0q8 9 20 25t43.5 63t56 91t44 101t19.5 101q0 15 -3 30zM448 592q0 29 20.5 49.5t49.5 20.5t49.5 -20.5t20.5 -49.5t-20.5 -49.5t-49.5 -20.5t-49.5 20.5t-20.5 49.5zM821 312q-1 -2 -2 -6.5
t-3.5 -15.5t-3.5 -20t1 -17.5t8 -10.5q12 -4 35.5 2t40.5 14l18 8v-304l-188 -73q-61 -22 -69 -20q-6 1 -73 27.5t-132 48.5t-75 17t-74.5 -22.5t-123 -32.5l-58.5 -15v304q108 26 116 46q5 11 5 23t-6.5 23t-23 12t-45.5 -11q-77 -35 -116 -70v-373q0 -2 1 -4t4.5 -8.5
t7 -11t10 -11.5t13 -9.5t15.5 -4.5t19 2q20 7 84.5 30.5t118 43l53.5 19.5q249 -89 280 -93q28 -3 177 46.5t150 70.5q2 80 2 241t-2 179q-2 9 -34 5.5t-67.5 -12t-62.5 -17.5z" />
    <glyph glyph-name="share01" unicode="&#xe60b;" 
d="M806 417q-16 0 -27 -11.5t-11 -26.5v-311h-634v311q0 15 -11 26.5t-26.5 11.5t-27 -11.5t-11.5 -26.5v-315q0 -29 21 -50t51 -21h642q30 0 51 21t21 50v315q0 15 -11 26.5t-27 11.5zM999 600v3l-1 3t-1 4v0.5t-1 0.5l-0.5 1l-0.5 1l-2 4q0 1 -1 2l-1 1l-2 2l-115 122
q-9 10 -23 11.5t-25 -6.5q-3 -2 -5 -4q-12 -11 -12.5 -26.5t10.5 -27.5l32 -34v0h-21.5t-42.5 -1t-62 -8t-69 -18t-76 -33t-71 -52q-136 -124 -134 -361q0 -15 10.5 -25.5t25.5 -10.5t25.5 10.5t10.5 25.5q-1 205 110 308q34 31 76.5 52t83 29t67 10.5t48.5 1.5v-1l-39 -17
q-4 -1 -7 -3q-11 -7 -15 -20t1 -26q6 -15 20.5 -21t29.5 0l154 64l1 0.5l1 0.5q3 2 4 2l3 3q1 0 1.5 0.5l1.5 1.5v0l3 3q0 1 0.5 1.5t1 1.5t1.5 2t1 1.5t0.5 1.5t1 1.5t1.5 4.5v1v1q1 1 1 5v1.5v0.5v5z" />
    <glyph glyph-name="guanbi1" unicode="&#xe64b;" 
d="M515 745q-91 0 -174 -35.5t-143 -95.5t-95.5 -143t-35.5 -174t35.5 -174t95.5 -143t143 -95.5t174 -35.5t174 35.5t143 95.5t95.5 143t35.5 174t-35.5 174t-95.5 143t-143 95.5t-174 35.5zM690 200q8 -8 8 -19.5t-8 -19.5l-39 -39q-8 -8 -19.5 -8t-19.5 8l-97 97l-98 -97
q-8 -8 -19 -8t-20 8l-38 39q-9 8 -9 19.5t9 19.5l97 97l-97 98q-9 8 -9 19t9 20l38 38q9 9 20 9t19 -9l98 -97l97 97q8 9 19.5 9t19.5 -9l39 -38q8 -9 8 -20t-8 -19l-97 -98z" />
    <glyph glyph-name="gouwucher" unicode="&#xe621;" 
d="M351 50q-27 0 -46.5 -19t-19.5 -46t19.5 -46t46 -19t46 19t19.5 46t-19.5 46t-45.5 19v0zM806 50q-27 0 -46 -19t-19 -46t19 -46t46 -19t46 19t19 46t-19 46t-46 19v0zM944 704q-26 28 -64 28h-652l-2 14q-4 35 -31.5 59.5t-63.5 24.5h-41q-13 0 -22.5 -9.5t-9.5 -23
t9.5 -23t22.5 -9.5h41q11 0 20 -8.5t11 -20.5l31 -181l55 -388q5 -36 32 -60.5t62 -24.5h529q13 0 22.5 9.5t9.5 23t-9.5 23t-22.5 9.5h-529q-10 0 -19 8.5t-10 19.5l-6 38l516 32q35 0 62.5 24t31.5 59l51 293q6 49 -24 83z" />
    <glyph glyph-name="fenlei" unicode="&#xe604;" 
d="M148 766q-22 0 -37.5 -15.5t-15.5 -37t15.5 -37t37 -15.5t37 15.5t15.5 37t-15.5 37t-36.5 15.5v0zM315 682h586q13 0 22 9.5t9 22.5t-9 22t-22 9h-586q-13 0 -22 -9t-9 -22t9 -22.5t22 -9.5v0zM148 452q-22 0 -37.5 -15.5t-15.5 -37t15.5 -37t37 -15.5t37 15.5t15.5 37
t-15.5 37t-36.5 15.5v0zM901 431h-586q-13 0 -22 -9t-9 -22t9 -22.5t22 -9.5h586q13 0 22 9.5t9 22.5t-9 22t-22 9v0zM148 117q-22 0 -37.5 -15t-15.5 -37t15.5 -37t37 -15t37 15t15.5 37t-15.5 37t-36.5 15v0zM901 96h-586q-13 0 -22 -9t-9 -22t9 -22.5t22 -9.5h586
q13 0 22 9.5t9 22.5t-9 22t-22 9v0z" />
    <glyph glyph-name="tuichu" unicode="&#xe62d;" 
d="M657 462l135 -137h-373q-6 0 -10 -4t-4 -9.5t4 -9.5t10 -4h373l-135 -137q-4 -4 -4 -9.5t4 -9.5q10 -10 20 0l158 160q10 10 0 19l-158 160q-10 10 -20 0.5t0 -19.5v0zM520 -26q0 6 -4 10t-10 4h-269v647h269q6 0 10 4t4 9.5t-4 9.5t-10 4h-282q-6 0 -10 -4t-4 -9v-675
q0 -5 4 -9t10 -4h282q6 0 10 4t4 9v0z" />
    <glyph glyph-name="dingwei" unicode="&#xe62c;" 
d="M515 -167q-21 0 -79.5 72t-118.5 167.5t-107 198t-47 154.5q0 97 47 178.5t128.5 129t177 47.5t177 -47.5t128.5 -129t47 -178.5q0 -51 -47 -153.5t-107.5 -198t-119 -168t-79.5 -72.5zM515.5 740q-129.5 0 -221 -92t-91.5 -221q0 -47 41.5 -138.5t95 -178t105 -151.5
t70.5 -65t70.5 65.5t105 152t95 178t41.5 137.5q0 129 -91 221t-220.5 92zM515.5 277q-60.5 0 -104 43.5t-43.5 104.5t43.5 104.5t104 43.5t103.5 -43.5t43 -104.5t-43 -104.5t-103.5 -43.5zM515.5 521q-38.5 0 -66 -27.5t-27.5 -66.5t27.5 -66.5t66 -27.5t66 27.5
t27.5 66.5t-27.5 66.5t-66 27.5z" />
    <glyph glyph-name="fenlei17" unicode="&#xe617;" 
d="M554 391h-84q-31 0 -54 22.5t-23 54.5v97q0 32 23 54.5t54 22.5h84q31 0 54 -22.5t23 -54.5v-97q0 -32 -23 -54.5t-54 -22.5zM470 599q-13 0 -23 -10t-10 -24v-97q0 -14 10 -23.5t23 -9.5h84q13 0 23 9.5t10 23.5v97q0 14 -10 24t-23 10h-84zM821 317q-23 0 -47 10
l-121 46q-28 10 -47 38t-19 57v97q0 30 19 57.5t47 37.5l121 46q24 10 47 10q44 0 73 -32q27 -30 27 -80v-175q0 -49 -28 -80.5t-72 -31.5zM821 672q-15 0 -32 -6l-121 -46q-15 -6 -26 -22.5t-11 -32.5v-97q0 -16 11 -32.5t26 -21.5l121 -46q17 -7 32 -7q26 0 41.5 18
t15.5 50v175q0 32 -15.5 50t-41.5 18zM203 317v0q-44 0 -72 31.5t-28 80.5v175q0 50 27 80q29 32 73 32q23 0 47 -10l121 -46q28 -10 47 -37.5t19 -57.5v-97q0 -29 -19 -57t-47 -38l-121 -46q-24 -10 -47 -10zM203 672q-26 0 -41.5 -18t-15.5 -50v-175q0 -32 15.5 -50
t41.5 -18q15 0 32 6l121 47q15 5 26 21.5t11 32.5v97q0 16 -11 32.5t-26 22.5l-121 46q-17 6 -32 6zM609 512q-7 0 -12 4q-8 5 -9.5 13.5t3.5 16.5q10 16 30 27q40 23 86 0q9 -4 11.5 -12.5t-1.5 -16.5t-12.5 -11t-16.5 1q-26 12 -46 1q-10 -5 -15 -13q-6 -10 -18 -10z
M389 522q-6 9 -16 14q-20 10 -45 -2q-8 -4 -16.5 -1t-12.5 11t-1 16.5t11 12.5q46 23 86 0q20 -11 31 -27l-37 -24v0zM662 446q-22 0 -41 11q-20 11 -30 28l36 23v0q6 -8 16 -13q20 -11 45 2q8 4 16.5 1t12.5 -11t1.5 -16.5t-11.5 -12.5q-23 -12 -45 -12zM354 446
q-22 0 -45 11q-8 4 -11 12.5t1 16.5t12.5 11t16.5 -1q26 -13 46 -1q10 5 15 13q5 7 13.5 9t16.5 -3t9.5 -13.5t-2.5 -16.5q-11 -17 -31 -28q-19 -10 -41 -10zM438 408q-8 0 -14 5q-7 6 -7.5 15t4.5 16l147 179q6 7 15 8t16 -5t8 -15t-5 -16l-147 -179q-6 -8 -17 -8z
M401.5 120q-37.5 0 -64.5 27t-27 64.5t27 64t64.5 26.5t64 -26.5t26.5 -64t-26.5 -64.5t-64 -27zM401.5 259q-19.5 0 -33.5 -14t-14 -33.5t14 -33.5t33.5 -14t33.5 14t14 33.5t-14 33.5t-33.5 14zM587 37q-38 0 -64.5 27t-26.5 64.5t26.5 64t64.5 26.5t64.5 -26.5t26.5 -64
t-26.5 -64.5t-64.5 -27zM587.5 176q-19.5 0 -33.5 -14t-14 -33.5t14 -33.5t33.5 -14t33 14t13.5 33.5t-13.5 33.5t-33 14zM401.5 176q-14.5 0 -25 10.5t-10.5 25t10.5 25t25 10.5t25 -10.5t10.5 -25t-10.5 -25t-25 -10.5zM401 219q-8 0 -8 -8t8 -8t8 8t-8 8zM587 93
q-15 0 -25.5 10.5t-10.5 25t10.5 25t25.5 10.5t25.5 -10.5t10.5 -25t-10.5 -25t-25.5 -10.5zM587 136q-8 0 -8 -8t8 -8t8 8t-8 8z" />
    <glyph glyph-name="xiugaiziliao" unicode="&#xe60c;" 
d="M875 562l-176 161q-14 14 -34.5 14t-35.5 -14l-438 -402q-22 -52 -56 -271q2 -2 6 -6.5t7.5 -7.5t7.5 -5q43 6 150 31.5t130 33.5l439 402q14 13 14 32t-14 32v0zM208 80l-17 16l15 82l85 -78l-83 -20v0zM401 128l-55 -14l-130 120l10 55l350 322l36 -32l-333 -306
l35 -32l333 305l35 -32l-263 -241l35 -32l263 241l35 -32l-351 -322v0zM787 482l-175 161l52 48l175 -161l-52 -48v0z" />
    <glyph glyph-name="caidan" unicode="&#xe605;" 
d="M137 772q-6 0 -10 -4t-4 -10v-277q0 -5 4 -9t10 -4h277q5 0 9 4t4 9v277q0 6 -4 10t-9 4h-277zM609 772q-5 0 -9 -4t-4 -10v-277q0 -5 4 -9t9 -4h277q6 0 10 4t4 9v277q0 6 -4 10t-10 4h-277zM609 805h277q20 0 33.5 -13.5t13.5 -33.5v-277q0 -19 -13.5 -32.5
t-33.5 -13.5h-277q-19 0 -32.5 13.5t-13.5 32.5v277q0 20 13.5 33.5t32.5 13.5v0zM137 299q-6 0 -10 -4t-4 -9v-277q0 -6 4 -10t10 -4h277q5 0 9 4t4 10v277q0 5 -4 9t-9 4h-277zM137 332h277q19 0 32.5 -13.5t13.5 -32.5v-277q0 -20 -13.5 -33.5t-32.5 -13.5h-277
q-20 0 -33.5 13.5t-13.5 33.5v277q0 19 13.5 32.5t33.5 13.5v0zM609 332h277q20 0 33.5 -13.5t13.5 -32.5v-277q0 -20 -13.5 -33.5t-33.5 -13.5h-277q-19 0 -32.5 13.5t-13.5 33.5v277q0 19 13.5 32.5t32.5 13.5v0zM137 805h277q19 0 32.5 -13.5t13.5 -33.5v-277
q0 -19 -13.5 -32.5t-32.5 -13.5h-277q-20 0 -33.5 13.5t-13.5 32.5v277q0 20 13.5 33.5t33.5 13.5v0zM137 805z" />
    <glyph glyph-name="quanbushangpin01" unicode="&#xe72b;" 
d="M798 -212h-572q-44 0 -69.5 24t-30.5 50q-70 392 -83 489q-8 56 20 89q28 31 79 31q9 0 17 -1h706q8 1 17 1q51 0 79 -31q28 -33 20 -89q-13 -96 -83 -488q-5 -27 -30 -51t-70 -24zM142 413q-24 0 -34 -12q-11 -12 -7 -42q13 -102 82 -486q1 -5 4 -9.5t13.5 -10.5
t25.5 -6h572q16 0 27 7t13 11.5t3 8.5q70 395 82 485q4 30 -6 42q-11 12 -35 12q-6 0 -11 -1h-4h-710h-4q-5 1 -11 1zM286 257zM225 257q0 25 17.5 43t43 18t43.5 -18t18 -43t-18 -43t-43.5 -18t-43 18t-17.5 43zM738 257zM677 257q0 25 18 43t43.5 18t43 -18t17.5 -43
t-17.5 -43t-43 -18t-43.5 18t-18 43zM773 511q-12 0 -20.5 8.5t-8.5 20.5q0 88 -68 150.5t-164 62.5t-164 -62.5t-68 -150.5q0 -12 -8.5 -20.5t-20.5 -8.5t-20.5 8.5t-8.5 20.5q0 113 85 192.5t205 79.5t205 -79.5t85 -192.5q0 -12 -8.5 -20.5t-20.5 -8.5z" />
    <glyph glyph-name="xiaoxi1" unicode="&#xe6ff;" 
d="M542 773q-11 5 -21 -3l-249 -209h-198q-8 0 -13.5 -6t-5.5 -14v-329q0 -8 5.5 -13.5t13.5 -5.5h198l249 -210q6 -4 13 -4q4 0 8 2q11 5 11 17v758q0 12 -11 17zM678 152q-9 0 -15 7q-5 6 -4.5 13.5t6.5 13.5q41 36 63 86t22 105q0 57 -23.5 108t-67.5 88q-6 5 -6.5 13
t4.5 14t13 6.5t14 -4.5q50 -42 77.5 -101t27.5 -124q0 -63 -26 -120.5t-73 -99.5q-5 -5 -12 -5zM783 62q-11 0 -16 9q-4 7 -2 14.5t8 12.5q74 43 116.5 118t42.5 161t-43 161t-117 119q-7 4 -9 11.5t2 14.5t12 9t15 -2q83 -49 131 -133t48 -180t-48 -180t-130 -132
q-4 -3 -10 -3v0z" />
    <glyph glyph-name="location" unicode="&#xe646;" 
d="M512 -160q-14 15 -36.5 41.5t-80.5 101t-102 141.5t-80.5 145.5t-36.5 130.5q0 91 45 168.5t122.5 122.5t168.5 45t168.5 -45t122.5 -122.5t45 -168.5q0 -52 -35.5 -129.5t-83 -148t-100 -138.5t-82.5 -103.5t-35 -40.5zM512 527q-53 0 -90 -37.5t-37 -90t37 -89.5
t90 -37t90 37t37 89.5t-37 90t-90 37.5z" />
    <glyph glyph-name="liren" unicode="&#xe64d;" 
d="M857 607q-30 29 -69 34.5t-74.5 -8.5t-66.5 -41q-101 93 -211.5 99.5t-241.5 -73.5q-33 -22 -52 -40l-9 -9l11 -6q5 -3 12.5 -8.5t21 -24.5t15.5 -41q1 -19 -12 -41t-32 -40t-38.5 -33t-33 -23.5l-13.5 -8.5l71 -32q-7 -31 -10 -52.5t1 -59.5t22 -70q20 -25 49 -27
q18 -1 47 -1h18h18q39 0 67 -3.5t42 -8t24 -13t12 -13t5 -13.5q30 -82 37 -131l1 -8h200h43q-4 11 -20 38t-29 53t-24.5 56.5t-9 59t20.5 49.5q68 89 80 199q6 57 -8 107q-11 41 -39 80q80 58 124 20q20 -17 21.5 -50.5t-11 -71.5t-33 -84t-41 -86t-37.5 -78.5t-21 -59.5
q-13 -56 -0.5 -90.5t37.5 -53t61 -19.5t70.5 9.5t64.5 34.5t44 56q-7 -10 -31.5 -15.5t-53.5 -2.5t-54.5 16.5t-34.5 42t6 74.5q13 36 43.5 108t38.5 101q24 84 18.5 129t-36.5 74v0zM857 607z" />
    <glyph glyph-name="jinhuoz" unicode="&#xe62e;" horiz-adv-x="1220" 
d="M12 183q-8 -24 15 -32l460 -147q2 -1 5 -1q0 14 10 43l-456 146q-28 9 -34 -9v0zM468 518l-219 -41l74 -207l49 82l104 -59l48 82l-104 60zM491 366l-24 -41l-104 60l-24 -42l-48 110l120 14l-24 -41zM674 120q-52 0 -88.5 -36t-36.5 -87.5t36.5 -88t88.5 -36.5
t88.5 36.5t36.5 88t-36.5 87.5t-88.5 36zM674 -78q-31 0 -53 22t-22 52.5t22 52.5t53 22t53 -22t22 -52.5t-22 -52.5t-53 -22zM1215 674q-3 20 -31 15l-319 -53l-10 -30l-148 -442q24 -4 44 -14l148 442l299 55q12 2 16 8t1 19zM673.5 21q-10.5 0 -17.5 -7t-7 -17.5t7 -18
t17.5 -7.5t18 7.5t7.5 18t-7.5 17.5t-18 7zM649 170l175 522l-300 99l-50 -174l-50 25l50 174l-274 74l-200 -621l539 -165l9 11q33 35 79 46zM524 145l-474 149l175 546l199 -49l-50 -174l125 -50l50 174l225 -74l-175 -472q-34 -11 -75 -50z" />
    <glyph glyph-name="jinhuozr" unicode="&#xe62f;" horiz-adv-x="1220" 
d="M14 185q-8 -23 15 -31l460 -148q3 -1 5 -1q0 15 10 43l-456 147q-28 9 -34 -10zM651 173l175 522l-300 99l-50 -174l-50 25l50 174l-275 74l-199 -621l539 -165l10 10q32 35 78 47zM478 295l-105 60l-48 -83l-74 208l219 40l-48 -82l104 -60zM1218 677q-3 20 -31 15
l-320 -53l-9 -30v0l-149 -442q25 -4 44 -15l148 443l300 55q12 2 15.5 8t1.5 19zM676 123q-52 0 -88.5 -36.5t-36.5 -88t36.5 -87.5t88.5 -36t88.5 36t36.5 87.5t-36.5 88t-88.5 36.5zM676.5 -26q-10.5 0 -18 7.5t-7.5 17.5t7.5 17.5t18 7.5t17.5 -7.5t7 -17.5t-7 -17.5
t-17.5 -7.5z" />
    <glyph glyph-name="liwu" unicode="&#xe653;" 
d="M848 -56h-308v358h308v-358v0zM176 302h308v-358h-308v358v0zM120 467h364v-110h-364v110v0zM903 357h-363v110h363v-110v0zM282 660q47 0 95.5 -42t86.5 -96h-95q-53 0 -95 25.5t-42 69.5q0 43 50 43v0zM742 660q51 0 51 -44t-41 -69t-94 -25h-95q38 55 85.5 96.5
t93.5 41.5v0zM959 467q0 22 -16 38.5t-40 16.5h-95q40 39 40 94q0 41 -25.5 70t-80.5 29q-36 0 -72 -17t-66 -45t-51 -53t-40 -53q-18 27 -39.5 52.5t-52 53.5t-67 45t-72.5 17q-54 0 -80 -29t-26 -70q0 -55 41 -94h-97q-23 0 -39.5 -16.5t-16.5 -38.5v-165h56v-358
q0 -23 16.5 -39t39.5 -16h672q23 0 39.5 16t16.5 39v358h55v165v0z" />
    <glyph glyph-name="daifahuo" unicode="&#xe60d;" horiz-adv-x="1026" 
d="M811 662h37q7 0 12 -6l162 -203q3 -4 3 -9v-249q0 -19 -13.5 -32.5t-32.5 -13.5h-56q-6 -43 -37.5 -72.5t-74.5 -32.5v29q35 3 59 29t24 61.5t-24 61.5t-59 29v30q43 -3 74.5 -33t36.5 -72h57q7 0 12 4q4 6 4 12v180h-184v30h184v34l-82 103h-102v30h79l-49 60h-30v30v0z
M333 817q28 -15 50 -37v0q11 -11 20 -23h165q25 0 42 -18v0q17 -17 17 -42v-35h184v-30h-184v-453h57q6 45 40 75t79 30h8v-30h-8q-37 0 -63.5 -26.5t-26.5 -64t26.5 -64t63.5 -26.5q5 0 8 1v-30h-8q-45 0 -79.5 30t-39.5 75h-300q-6 -53 -51 -84v40q22 25 22 58.5t-22 59.5
v39q44 -30 51 -83h214v518q0 12 -9 21v0q-9 9 -21 9h-146q27 -50 27 -106q0 -93 -66 -159q-22 -22 -50 -38v35q17 11 29 24q57 57 57 137.5t-57 138.5v0q-13 13 -29 24v34v0v0zM811 572h-34q-20 0 -34 -14t-14 -34v-101q0 -20 14 -34t33 -14h35v30h-35q-7 0 -12 5t-5 13v101
q0 7 5 12.5t13 5.5h34v30v0zM225 845q58 0 108 -28v-34q-49 33 -108 33q-19 0 -36 -4v31q18 2 36 2v0v0zM333 65q-31 -22 -68 -22q-43 0 -76 28v43q27 -41 76 -41q41 0 68 32v-40v0zM333 459v-34q-50 -29 -108 -29q-18 0 -36 3v30q17 -3 36 -3q59 0 108 33v0v0zM333 262v-39
q-27 31 -68 31q-49 0 -76 -41v44q33 27 76 27q37 0 68 -22v0v0zM189 572v38l21 18v128q0 10 7.5 14t14.5 0t7 -14v-135q0 -7 -5 -12l-45 -37v0zM189 71q-38 30 -44 78h-46q-25 0 -42.5 17.5t-17.5 42.5v285q-39 58 -39 127q0 93 66 159q52 51 123 63v-31q-59 -10 -102 -53
q-57 -58 -57 -138.5t57 -137.5v0q43 -43 102 -54v-30q-69 11 -120 60v-250q0 -13 8.5 -21.5t21.5 -8.5h46q6 47 44 78v-44q-15 -22 -15 -49t15 -50v-43v0v0zM189 610l-23 -19l-21 -18q-8 -6 -6 -14.5t9 -11t16 2.5l25 22v38v0zM189 610z" />
    <glyph glyph-name="yifahuo" unicode="&#xe60e;" horiz-adv-x="1026" 
d="M811 662h37q7 0 12 -6l162 -203q3 -4 3 -9v-249q0 -19 -13.5 -32.5t-32.5 -13.5h-56q-6 -43 -37.5 -72.5t-74.5 -32.5v29q35 3 59 29t24 61.5t-24 61.5t-59 29v30q43 -3 74.5 -33t36.5 -72h57q7 0 12 4q4 6 4 12v180h-184v30h184v34l-82 103h-102v30h79l-49 60h-30v30v0z
M333 817q28 -15 50 -37v0q11 -11 20 -23h165q25 0 42 -18v0q17 -17 17 -42v-35h184v-30h-184v-453h57q6 45 40 75t79 30h8v-30h-8q-37 0 -63.5 -26.5t-26.5 -64t26.5 -64t63.5 -26.5q5 0 8 1v-30h-8q-45 0 -79.5 30t-39.5 75h-300q-6 -53 -51 -84v40q22 25 22 58.5t-22 59.5
v39q44 -30 51 -83h214v518q0 12 -9 21v0q-9 9 -21 9h-146q27 -50 27 -106q0 -93 -66 -159q-22 -22 -50 -38v35q17 11 29 24q57 57 57 137.5t-57 138.5v0q-13 13 -29 24v34v0v0zM811 572h-34q-20 0 -34 -14t-14 -34v-101q0 -20 14 -34t33 -14h35v30h-35q-7 0 -12 5t-5 13v101
q0 7 5 12.5t13 5.5h34v30v0zM225 845q58 0 108 -28v-34q-49 33 -108 33q-19 0 -36 -4v31q18 2 36 2v0v0zM333 65q-31 -22 -68 -22q-43 0 -76 28v43q27 -41 76 -41q41 0 68 32v-40v0zM333 459v-34q-50 -29 -108 -29q-18 0 -36 3v30q17 -3 36 -3q59 0 108 33v0v0zM333 262v-39
q-27 31 -68 31q-49 0 -76 -41v44q33 27 76 27q37 0 68 -22v0v0zM189 71q-38 30 -44 78h-46q-25 0 -42.5 17.5t-17.5 42.5v285q-39 58 -39 127q0 93 66 159q52 51 123 63v-31q-59 -10 -102 -53q-57 -58 -57 -138.5t57 -137.5v0q43 -43 102 -54v-30q-69 11 -120 60v-250
q0 -13 8.5 -21.5t21.5 -8.5h46q6 47 44 78v-44q-15 -22 -15 -49t15 -50v-43v0v0zM210 524q-6 -6 -14.5 -5.5t-14.5 6.5l-68 72q-6 6 -5.5 14.5t6.5 14.5v0q6 5 14 5t14 -6l69 -73q5 -6 5 -14t-6 -14v0zM218 522q-6 -5 -14.5 -5t-14.5 6l-2 3q-6 6 -6 14.5t6 13.5l128 121
q6 6 14.5 5.5t14.5 -6.5l2 -2q6 -6 5.5 -14.5t-6.5 -14.5z" />
    <glyph glyph-name="pinpai" unicode="&#xe618;" 
d="M908 534v7v7v0v0l-123 184v0l-7 7h-7v0h-6v0h-492v0h-7v0h-7l-6 -7v0l-130 -177v0v0v-7v-7v-7v-7v0v0l362 -484q7 0 7 -7l6 -7q7 -7 20.5 -7t20.5 7l7 7q7 0 7 7l362 484v0v0v7q-7 -6 -7 0zM382 500h253l-123 -348zM676 602l-82 82h109zM608 568h-192l96 103zM348 602
l-27 82h109zM765 643l47 -75h-75zM259 643l28 -75h-75zM314 500l89 -246l-185 246h96zM621 254l89 246h96z" />
    <glyph glyph-name="hot" unicode="&#xe649;" 
d="M100 750h-46q0 -1 1 -2q304 -121 541.5 -347t373.5 -523v0v872h-870zM549 528l54 54l-49 48l-53 -53l-25 24l122 122l25 -25l-48 -48l48 -48l48 48l25 -24l-122 -122zM652 422q-28 27 -27.5 59.5t30.5 61.5q18 19 36 26q14 5 28.5 5.5t26.5 -4.5q16 -7 31 -22
q27 -27 26.5 -59.5t-29.5 -62.5q-30 -30 -63 -30.5t-59 26.5zM921 359l-36 36l-101 -101l-25 24v0l102 102l-37 36l21 20l97 -97zM721.5 541q-19.5 -1 -40.5 -22t-22 -41t13.5 -35t34.5 -14t42 23q20 21 21.5 40.5t-14 34.5t-35 14z" />
    <glyph glyph-name="caidan1" unicode="&#xe6a0;" 
d="M1 300.5q0 42.5 30 72t72.5 29.5t72 -29.5t29.5 -72t-29.5 -72.5t-72 -30t-72.5 30t-30 72.5zM410 300.5q0 42.5 30 72t72 29.5t72 -29.5t30 -72t-30 -72.5t-72 -30t-72 30t-30 72.5zM819 300.5q0 42.5 29.5 72t72 29.5t72.5 -29.5t30 -72t-30 -72.5t-72.5 -30t-72 30
t-29.5 72.5z" />
    <glyph glyph-name="icon2" unicode="&#xe60f;" 
d="M345 399zM626 269h-320q-10 0 -17 -7t-7 -16.5t7 -16.5t17 -7v0h320q7 0 12 3t8 8.5t3 11.5q0 10 -6.5 17t-16.5 7zM626 410h-320v0q-11 0 -17.5 -7t-6.5 -17q0 -6 3.5 -11.5t8.5 -8.5t12 -3h320q5 0 9 2t7 5t5 7t2 9q0 10 -6.5 17t-16.5 7zM626 551h-320q-10 0 -17 -6.5
t-7 -16.5t7 -17t17 -7h320q10 0 16.5 7t6.5 17t-6.5 16.5t-16.5 6.5zM426 652q3 -3 7.5 -5t8.5 -2h184q10 0 16.5 7.5t6.5 17t-6.5 16t-16.5 6.5h-184v0h-7q-16 -6 -16 -23q0 -5 2 -9.5t5 -7.5zM827.5 663.5q-3.5 8.5 -9.5 15t-14.5 10t-17.5 3.5v0h-46v47q0 20 -13.5 33.5
t-31.5 14.5h-457q-18 0 -31.5 -14t-13.5 -34v-565q0 -19 13.5 -33t31.5 -14h47v-47q0 -19 13 -33t32 -14h456q9 0 17.5 4t14.5 10t9.5 15t3.5 18v565q0 10 -3.5 18.5zM238 172v0v573v0h461v0v-25v-524v-24v0h-461zM786 80v0h-456v47h365q12 0 22.5 6.5t16.5 17.5t6 23v471
h46v-565z" />
    <glyph glyph-name="fenlei45" unicode="&#xe633;" 
d="M694 77h-376q-22 0 -37.5 15.5t-15.5 37.5v472q0 22 15.5 37.5t37.5 15.5h376q22 0 37 -15.5t15 -37.5v-472q0 -22 -15 -37.5t-37 -15.5zM318 608q-6 0 -6 -6v-472q0 -6 6 -6h376q5 0 5 6v472q0 6 -5 6h-376zM405.5 212q-6.5 0 -11 4.5t-4.5 11.5v278q0 6 4.5 10.5
t11 4.5t11 -4.5t4.5 -10.5v-278q0 -7 -4.5 -11.5t-11 -4.5zM509.5 212q-6.5 0 -11 4.5t-4.5 11.5v278q0 6 4.5 10.5t11 4.5t11 -4.5t4.5 -10.5v-278q0 -7 -4.5 -11.5t-11 -4.5zM614 212q-6 0 -10.5 4.5t-4.5 10.5v278q0 7 4.5 11.5t10.5 4.5t10.5 -4.5t4.5 -11.5v-278
q0 -6 -4.5 -10.5t-10.5 -4.5zM443.5 619q-6.5 0 -11 4.5t-4.5 11.5v75q0 6 4.5 10.5t11 4.5t11 -4.5t4.5 -10.5v-75q0 -7 -4.5 -11.5t-11 -4.5zM578.5 619q-6.5 0 -11 4.5t-4.5 11.5v75q0 6 4.5 10.5t11 4.5t11 -4.5t4.5 -10.5v-75q0 -7 -4.5 -11.5t-11 -4.5zM610 694h-199
q-17 0 -28.5 12t-11.5 29t11.5 29t28.5 12h199q17 0 29 -12t12 -29t-12 -29t-29 -12zM411 745q-4 0 -7 -3t-3 -7t3 -7t7 -3h199q4 0 7 3t3 7t-3 7t-7 3h-199zM392 16q-10 0 -16.5 7t-6.5 16v62q0 9 6.5 16t16.5 7t17 -7t7 -16v-62q0 -9 -7 -16t-17 -7zM631 12q-10 0 -17 6.5
t-7 16.5v62q0 9 7 16t17 7t17 -7t7 -16v-62q0 -10 -7 -16.5t-17 -6.5z" />
    <glyph glyph-name="cuowutishi" unicode="&#xe635;" 
d="M944 21l-353 642q-30 54 -78.5 54t-78.5 -54l-353 -642q-29 -53 -4 -96q25 -42 86 -42h699q61 0 86 42q25 43 -4 96zM890 -40q-5 -9 -28 -9h-699q-23 0 -28 9q-6 9 5 29l353 641q11 19 19.5 19t19.5 -19l353 -641q11 -20 5 -29zM511.5 478q-16.5 0 -28.5 -11.5t-12 -28.5
v-233q0 -17 12 -29t28.5 -12t28.5 12t12 29v233q0 17 -12 28.5t-28.5 11.5zM512.5 124q-16.5 0 -28.5 -11.5t-12 -28.5t12 -29t28.5 -12t28.5 12t12 29t-12 28.5t-28.5 11.5z" />
    <glyph glyph-name="mima01" unicode="&#xe654;" 
d="M680 -48h-336q-92 0 -157.5 65.5t-65.5 157.5v224q0 46 32.5 79t79.5 33v56q0 115 81.5 197t197.5 82t197.5 -82t81.5 -197v-56q47 0 79.5 -33t32.5 -79v-224q0 -92 -65.5 -157.5t-157.5 -65.5zM456 191v-71q0 -23 16.5 -39.5t39.5 -16.5t39.5 16.5t16.5 39.5v71
q25 15 40.5 40.5t15.5 55.5q0 47 -33 79.5t-79 32.5t-79 -32.5t-33 -79.5q0 -30 15.5 -55.5t40.5 -40.5zM512 734q-69 0 -118.5 -49t-49.5 -118q0 -27 11 -56h314q11 29 11 56q0 69 -49.5 118t-118.5 49z" />
    <glyph glyph-name="jianshao" unicode="&#xe616;" 
d="M183 334q-25 0 -42 17.5t-17 42t17 42t42 17.5h659q25 0 42 -17.5t17 -42t-17 -42t-42 -17.5h-659z" />
    <glyph glyph-name="pailie2" unicode="&#xe62a;" 
d="M341 812h-170q-53 0 -90.5 -36t-37.5 -88v-144q0 -52 37.5 -88t90.5 -36h170q53 0 90.5 36t37.5 88v144q0 52 -37.5 88t-90.5 36zM405 523q0 -17 -12.5 -29t-29.5 -12h-214q-17 0 -29.5 12t-12.5 29v186q0 17 12.5 29t29.5 12h214q17 0 29.5 -12t12.5 -29v-186zM341 358
h-170q-53 0 -90.5 -36.5t-37.5 -87.5v-145q0 -51 37.5 -87.5t90.5 -36.5h170q53 0 90.5 36.5t37.5 87.5v145q0 51 -37.5 87.5t-90.5 36.5zM405 68q0 -17 -12.5 -29t-29.5 -12h-214q-17 0 -29.5 12t-12.5 29v186q0 17 12.5 29.5t29.5 12.5h214q17 0 29.5 -12.5t12.5 -29.5
v-186zM941 685h-403q-8 0 -14.5 6.5t-6.5 15.5v21q0 9 6.5 15t14.5 6h403q9 0 15 -6t6 -15v-21q0 -9 -6 -15.5t-15 -6.5v0zM941 473h-403q-8 0 -14.5 6t-6.5 15v21q0 9 6.5 15.5t14.5 6.5h403q9 0 15 -6.5t6 -15.5v-21q0 -9 -6 -15t-15 -6v0zM941 240h-403q-8 0 -14.5 6
t-6.5 15v21q0 9 6.5 15t14.5 6h403q9 0 15 -6t6 -15v-21q0 -9 -6 -15t-15 -6v0zM941 27h-403q-8 0 -14.5 6.5t-6.5 15.5v21q0 9 6.5 15t14.5 6h403q9 0 15 -6t6 -15v-21q0 -9 -6 -15.5t-15 -6.5v0z" />
    <glyph glyph-name="wodedingdan" unicode="&#xe63b;" 
d="M826 722h-64q-10 0 -15 -1t-11 -8.5t-6 -22.5q0 -30 -22.5 -53t-54.5 -23h-282q-29 4 -53 28t-24 48q0 32 -25 32h-71q-43 0 -75.5 -32.5t-32.5 -75.5v-653q0 -43 32.5 -76t75.5 -33h628q43 0 75.5 33t32.5 76v653q0 43 -32.5 75.5t-75.5 32.5zM755 102q0 -11 -9 -21.5
t-23 -10.5h-416q-11 0 -21.5 9t-10.5 23v0q0 10 9.5 21t22.5 11h423q10 0 17.5 -9.5t7.5 -22.5v0zM755 274q0 -10 -9 -21t-23 -11h-416q-11 0 -21.5 9.5t-10.5 22.5v0q0 10 9 18t23 8h423q9 0 17 -8t8 -18v0zM723 396h-416q-14 0 -23 9t-9 23q0 11 9.5 21.5t22.5 10.5h423
q10 0 21 -9.5t11 -22.5q-11 -32 -39 -32zM422 652h186q20 0 35.5 14t15.5 37v0q-5 20 -18.5 32.5t-32.5 12.5h-186q-20 0 -35.5 -14t-15.5 -37v0q0 -19 16 -32t35 -13z" />
    <glyph glyph-name="gerenzhongxin" unicode="&#xe627;" 
d="M515.5 787q-92.5 0 -158.5 -65.5t-66 -158.5q0 -71 40.5 -128.5t105.5 -81.5q-77 -21 -134 -67q-61 -48 -98 -123q-19 -37 -29.5 -79.5t-12.5 -58.5t-2 -26q0 -5 3.5 -8.5t7.5 -3.5h1q4 0 7.5 3.5t3.5 7.5q1 8 2.5 23.5t11.5 55.5t28 76q78 159 264 188q13 -2 25 -2
q93 0 158.5 65.5t65.5 158.5t-65.5 158.5t-158 65.5zM515 363q-11 0 -22 1h-3q-75 10 -125 66.5t-50 132.5q0 83 58.5 141.5t141.5 58.5t142 -58.5t59 -141.5t-59 -141.5t-142 -58.5zM856 -1q-8 126 -65 210q-29 43 -58 60q-9 7 -15.5 -3t3.5 -16q25 -16 51 -55
q53 -79 61 -197q1 -11 12 -11h1q4 0 7.5 4t2.5 8v0z" />
    <glyph glyph-name="gerenzhongxin1" unicode="&#xe607;" 
d="M697 265q-7 -8 -5.5 -18.5t9.5 -16.5q59 -46 91.5 -113t32.5 -143q0 -10 7.5 -17.5t17.5 -7.5t17 7.5t7 17.5q0 88 -37.5 165t-105.5 130q-8 6 -18.5 5t-15.5 -9v0zM169 -51q10 0 17 7.5t7 17.5q0 87 42.5 161.5t115.5 117.5t158 43q101 0 172.5 72.5t71.5 175t-71.5 175
t-172 72.5t-172 -72.5t-71.5 -174.5q0 -68 34.5 -126.5t92.5 -91.5q-110 -38 -179.5 -135.5t-69.5 -216.5q0 -10 7.5 -17.5t17.5 -7.5v0zM509 742q81 0 138 -58.5t57 -140t-57 -139.5t-137.5 -58t-137.5 58t-57 139.5t57 140t137 58.5v0zM509 742z" />
    <glyph glyph-name="bianji" unicode="&#xe63c;" horiz-adv-x="1025" 
d="M402 -90l49 167q8 27 29 47l126 124q-17 7 -30 11q-3 1 -7 3.5t-10 9.5t-9.5 16.5t-2.5 27t8 39.5h-1q51 52 83 127.5t32 152.5q0 117 -67.5 182.5t-167 65.5t-166.5 -65.5t-67 -182.5q0 -78 32 -153.5t83 -127.5q7 -26 7 -42.5t-9 -28.5t-15.5 -17t-12.5 -7
q-71 -26 -133 -59t-107.5 -77t-45.5 -84v-32q0 -137 400 -144q-5 25 2 47v0zM859 208l-1 -1l-38 39v0l-52 52l-234 -233q-5 -4 -7 -10l-49 -167q-4 -12 5 -21q6 -6 15 -6q3 0 6 1l167 49q5 2 10 7l235 232zM630 15l3 -54l13 -14l-90 -26l-19 19l26 90l11 -11zM790 321
l147 -147l34 31l-148 148zM1009 323l-70 71q-15 14 -35.5 14t-34.5 -14l-22 -22l141 -141l22 22q14 14 14 35t-15 35v0zM1009 323z" />
    <glyph glyph-name="duihuan" unicode="&#xe610;" horiz-adv-x="1025" 
d="M512.5 -11q-107.5 0 -199 52.5t-144.5 144t-53 198.5t53 198.5t144.5 144t199 52.5t198.5 -52.5t144 -144t53 -198.5t-53 -198.5t-144 -144t-198.5 -52.5zM512 763q-103 0 -190.5 -50.5t-138 -138t-50.5 -190.5t50.5 -190t138 -138t190.5 -51t190.5 51t138 138t50.5 190
t-50.5 190.5t-138 138t-190.5 50.5zM677 301h-291l89 -88q11 -11 -0.5 -22t-22.5 0l-116 116q-12 11 0 22q4 5 11 5v0v0v1h330q7 0 11.5 -5t4.5 -12v0q0 -7 -4.5 -12t-11.5 -5zM677 434v0v-1h-330q-7 0 -11.5 5t-4.5 12t4.5 11.5t11.5 4.5h291l-89 89q-11 11 0.5 22t22.5 0
l116 -116q12 -11 0 -22q-4 -5 -11 -5z" />
    <glyph glyph-name="dianzan" unicode="&#xe66f;" 
d="M352 134q1 -2 0.5 -4t-5 -6t-13.5 -4h-87q-3 0 -6.5 0.5t-9.5 6t-6 14.5l-21 340q0 2 0.5 5.5t6 9.5t14.5 6h102q3 0 7 -1t11 -7.5t7 -17.5v-342zM757 183q-2 -7 -6 -17.5t-15.5 -28t-21.5 -17.5h-255q-19 0 -41 11.5t-22 33.5v337q5 3 13.5 10t30.5 29.5t38.5 46t30 58
t13.5 68.5q1 1 1.5 9t2.5 15t11.5 13t25.5 6q2 0 6 -1t14 -7t18.5 -15.5t16 -29.5t10 -45.5t-2 -66.5t-17.5 -90h169q1 -1 5 -0.5t10.5 -1.5t12.5 -5.5t10.5 -12.5t4.5 -21l-0.5 -8t-4 -29t-9.5 -50.5t-18.5 -80t-30.5 -110.5z" />
    <glyph glyph-name="fenlei43" unicode="&#xe634;" 
d="M863 693q-2 17 -19 22l-224 59q-15 4 -25 -7l-83 -85l-84 85q-10 11 -24 7l-225 -59q-17 -5 -19 -22l-51 -490q-1 -10 5 -18t16 -10l108 -16v-165q0 -10 7.5 -17.5t18.5 -7.5h496q10 0 17.5 7.5t7.5 17.5v165l108 16q10 2 16 10t5 18zM785 210v186q0 10 -7.5 17.5
t-18 7.5t-18 -7.5t-7.5 -17.5v-376h-445v161v215q0 10 -7.5 17.5t-18 7.5t-18 -7.5t-7.5 -17.5v-186l-77 11l47 450l194 51l91 -93q8 -8 18.5 -8t17.5 8l92 93l194 -51l47 -450zM572 598q-2 10 -11 15.5t-19 3t-15.5 -11t-3.5 -18.5l68 -298l-80 -100l-79 100l68 298
q2 10 -3.5 18.5t-15.5 11t-19 -3t-11 -15.5l-71 -309q-3 -12 5 -21l107 -136l0.5 -0.5l1 -1l1 -1l1.5 -1.5h0.5h1.5q7 -5 13 -5v0v0v0h1q6 0 13 5h1h1l1.5 1.5l1 1l1 1l0.5 0.5l107 136q8 9 5 21z" />
    <glyph glyph-name="huiyuan" unicode="&#xe63d;" horiz-adv-x="1304" 
d="M1117 457q-9 0 -19 2l-14 -64q-1 -29 -11 -101.5t-19 -129.5l-9 -58h-788q-23 224 -29 292l-12 65q-17 -6 -32 -6q-42 0 -72 30t-30 72.5t30 72.5t72.5 30t72 -30t29.5 -73q0 -24 -12 -47l187 -70l157 255q-30 10 -49.5 36.5t-19.5 60.5q0 42 30 72t72 30t72 -30t30 -72
q0 -34 -19.5 -60.5t-50.5 -36.5l157 -255l186 74q-11 21 -11 43q0 43 30 73t72.5 30t72.5 -30t30 -72.5t-30 -72.5t-73 -30v0zM1045 -11q-31 -64 -71 -90.5t-104 -26.5h-438q-54 0 -102 28t-73 89v29h788v-29v0zM1045 -11z" />
    <glyph glyph-name="dingwei1" unicode="&#xe6b8;" 
d="M511 896q-104 0 -198.5 -40.5t-163 -109t-109 -163t-40.5 -198.5t40.5 -199t109 -163.5t163 -108.5t198.5 -40t199 40t163.5 108.5t109 163.5t40.5 199t-40.5 198.5t-109 163t-163.5 109t-199 40.5zM541 -65v209q0 13 -8.5 21.5t-21 8.5t-21.5 -8.5t-9 -21.5v-209
q-111 7 -204.5 64t-151 151t-64.5 205h210q12 0 21 8.5t9 21t-9 21.5t-21 9h-210q7 111 64.5 204.5t151 151t204.5 64.5v-210q0 -12 9 -21t21.5 -9t21 9t8.5 21v210q111 -7 205 -64.5t151 -151t64 -204.5h-209q-13 0 -21.5 -9t-8.5 -21.5t8.5 -21t21.5 -8.5h209
q-7 -111 -64 -205t-151 -151t-205 -64zM511 385zM421 384.5q0 37.5 26.5 64t64 26.5t63.5 -26.5t26 -64t-26 -63.5t-63.5 -26t-64 26t-26.5 63.5z" />
    <glyph glyph-name="qianbao" unicode="&#xe63e;" 
d="M798 191h191v64h-191v-64zM926 573q26 0 44.5 -18.5t18.5 -45.5v-191h-222q-14 0 -23 -9t-9 -22v-128q0 -13 9 -22.5t23 -9.5h222v-191q0 -26 -18.5 -44.5t-44.5 -18.5h-828q-26 0 -44.5 18.5t-18.5 44.5v637h891zM862 891q27 8 40 2q24 -9 24 -33v-223h-891z" />
    <glyph glyph-name="libao01" unicode="&#xe655;" 
d="M416 734q-35 32 -75 32q-20 0 -30 -9q-8 -8 -8 -22q0 -33 33 -63q22 -21 54 -34.5t59 -13.5q14 0 16 3q6 11 -7.5 46t-41.5 61v0zM560 626l2 -0.5t5.5 -1t8.5 -0.5q26 0 58.5 13.5t54.5 34.5q32 30 32 63q0 14 -8 22q-10 9 -30 9q-40 0 -75 -32q-27 -26 -40.5 -61
t-7.5 -47v0v0zM479 -65h-294q-27 0 -46.5 19t-19.5 46v230h360v-295zM905 0q0 -27 -19 -46t-46 -19h-295v295h360v-230zM905 295h-360v266q-19 5 -31 17q-1 0 -1.5 0.5l-0.5 0.5l-0.5 -0.5l-0.5 -0.5q-13 -12 -32 -17v-266h-360v229q0 27 19.5 46.5t46.5 19.5h151
q-26 15 -46 33q-45 43 -52.5 96t28.5 87q29 27 75 27q67 0 121 -50q30 -29 50 -70q20 41 51 70q54 50 120 50q46 0 76 -27q35 -34 28 -87t-53 -96q-20 -18 -46 -33h152q27 0 46 -19.5t19 -46.5v-229zM905 295z" />
    <glyph glyph-name="xitongguanli" unicode="&#xe651;" horiz-adv-x="1028" 
d="M515 570q-77 0 -131.5 -54.5t-54.5 -131.5t54.5 -131.5t131.5 -54.5t131.5 54.5t54.5 131.5t-54.5 131.5t-131.5 54.5zM515 241q-59 0 -101 42t-42 101t42 101t101 42t101 -42t42 -101t-42 -101t-101 -42zM949 455q-16 16 -38 16h-40q-7 0 -14 5.5t-9 13.5l-24 57
q-3 6 -1.5 14t5.5 13l29 28q16 16 15.5 38.5t-15.5 38.5l-47 46q-16 16 -39 16t-38 -16l-28 -28q-5 -4 -13.5 -5.5t-13.5 1.5q-1 1 -2 1l-57 24q-6 2 -11.5 8.5t-5.5 13.5v40q0 22 -16 38t-38 16h-66q-22 0 -38 -16t-16 -38v-40q0 -7 -5.5 -14t-13.5 -9l-55 -23q-1 0 -2 -1
q-5 -2 -13.5 -1t-13.5 5l-28 28q-15 16 -38.5 16t-38.5 -16l-47 -46q-15 -16 -15 -38.5t15 -38.5l28 -28q5 -5 6.5 -13t-1.5 -14q-1 -1 -1 -2l-24 -57q-2 -6 -9 -11.5t-13 -5.5h-40q-22 0 -38 -16t-16 -38v-66q0 -22 16 -38t38 -16h40q7 0 13.5 -5.5t9.5 -13.5l24 -57
q3 -6 1.5 -14t-5.5 -13l-29 -28q-15 -16 -15 -38.5t15 -38.5l47 -47q15 -15 38.5 -15t38.5 15l28 28q4 5 13 6t14 -2q1 0 2 -1l57 -23q6 -2 11.5 -9t5.5 -13v-40q0 -22 16 -38t38 -16h66q22 0 38 16t16 38v40q0 6 5.5 13t13.5 10l55 22q1 1 2 1q5 3 14 2t13 -6l28 -28
q15 -15 38.5 -15t38.5 15l46 47q16 16 16 38.5t-16 38.5l-28 28q-4 5 -5 13.5t2 15.5l24 57q2 6 8.5 11.5t13.5 5.5h40q22 0 38 15.5t16 38.5v66q0 22 -16 38v0zM922 351q0 -5 -3.5 -8.5t-7.5 -3.5h-40q-20 0 -38.5 -13t-24.5 -31l-21 -54q-10 -18 -6.5 -40.5t17.5 -36.5
l28 -28q4 -4 4 -8.5t-4 -8.5l-47 -46q-3 -4 -7.5 -4t-8.5 4l-28 28q-14 14 -36.5 17.5t-39.5 -5.5l-53 -22q-20 -6 -33.5 -24.5t-13.5 -38.5v-40q0 -4 -3 -7.5t-8 -3.5h-66q-5 0 -8.5 3.5t-3.5 7.5v40q0 21 -13 39t-31 23l-55 23q-17 9 -39.5 5.5t-36.5 -17.5l-28 -28
q-4 -4 -8.5 -4t-8.5 4l-46 46q-8 9 0 17l28 28q14 14 17.5 36.5t-5.5 38.5l-22 54q-6 19 -24.5 32.5t-38.5 13.5h-40q-4 0 -7.5 3.5t-3.5 8.5v66q0 5 3.5 8t7.5 3h40q20 0 38.5 13.5t23.5 31.5l23 55q9 18 5.5 40t-17.5 36l-28 28q-4 4 -4 8.5t4 8.5l46 46q4 4 8.5 4t8.5 -4
l28 -28q14 -14 36.5 -17.5t39.5 5.5l53 22q19 6 32.5 24t13.5 39v40q0 4 3.5 7.5t8.5 3.5h66q5 0 8 -3.5t3 -7.5v-40q0 -20 13.5 -38.5t31.5 -24.5l54 -22q18 -9 40.5 -5.5t36.5 17.5l28 28q4 3 8.5 3t8.5 -3l46 -46q4 -4 4 -8.5t-4 -8.5l-28 -28q-14 -14 -17.5 -36.5
t5.5 -39.5l22 -53q6 -20 24.5 -33.5t38.5 -13.5h40q4 0 7.5 -3t3.5 -8v-66z" />
    <glyph glyph-name="wenti01" unicode="&#xe656;" 
d="M934 385q0 115 -56.5 212.5t-154 154t-212.5 56.5t-212 -56.5t-153.5 -154t-56.5 -212.5t56.5 -212.5t153.5 -154t212 -56.5q72 0 139 24l244 -24l-80 129q57 58 88.5 134t31.5 160v0zM574 95h-106v97h106v-97zM615 354q-55 -37 -52 -84v-19h-84v22q-3 83 78 142
q78 52 69 111q-8 66 -83 72q-100 3 -117 -100l-88 25q36 164 213 155q156 -8 170 -155q3 -92 -106 -169v0zM615 354z" />
    <glyph glyph-name="fenlei12" unicode="&#xe619;" 
d="M848.5 119q-35.5 0 -60.5 -24.5t-25 -60t25 -60t60.5 -24.5t60.5 24.5t25 60t-25 60t-60.5 24.5zM848.5 -27q-25.5 0 -44 18t-18.5 43.5t18.5 43.5t44 18t43.5 -18t18 -43.5t-18 -43.5t-43.5 -18zM377.5 119q-35.5 0 -60.5 -24.5t-25 -60t25 -60t60.5 -24.5t60.5 24.5
t25 60t-25 60t-60.5 24.5zM377.5 -27q-25.5 0 -43.5 18t-18 43.5t18 43.5t43.5 18t44 -18t18.5 -43.5t-18.5 -43.5t-44 -18zM988 469q-1 7 -3.5 19t-13.5 43.5t-26.5 61.5t-43.5 66.5t-63 64.5t-88 49.5t-115 27.5l-13 1v-323h-234q-2 60 -23 110.5t-51 84t-69 61t-72.5 42
t-67.5 25t-48 13.5t-20 3l-3 -23q6 -1 19 -3.5t45 -12.5t63.5 -23.5t68.5 -39t64.5 -56.5t47.5 -78.5t23 -102.5h-159v-23h74q1 -15 4.5 -36.5t14 -60t35.5 -79t61 -70.5q80 -67 203 -67q38 0 80 7q4 0 13 1.5t31.5 9.5t45 20t50.5 35.5t51.5 54t44 79t31.5 106.5h45z
M675 173q-168 -26 -265 55q-32 27 -55 64t-33 73t-13.5 56t-4.5 35h617q-10 -54 -29 -98t-40 -72.5t-46.5 -50.5t-45.5 -33t-41.5 -18t-29.5 -8.5t-14 -2.5zM646 479v297q50 -6 93 -22.5t73 -38.5t55.5 -50.5t41 -53.5t27.5 -53t17.5 -45.5t8.5 -33.5h-316z" />
    <glyph glyph-name="gouwuche" unicode="&#xe620;" 
d="M80 799h80l-4 1q6 -2 14 -7q11 -9 11 -19l1 -3v0v0v0v0v0v-1q0 -3 1 -6v0v-1v-1v-1v-1v0v-1l1 -1v0v-1v-1v0v-1v-1v-1v0v-1l1 -1v-1v-1v0v-1v-1l1 -2v0l10 -70l32 -210l33 -211l14 -96q2 -14 14 -26q21 -21 64 -21h97h165h184h84v0q6 0 11 4.5t5 11.5t-5 11.5t-11 4.5v0
h-84h-184h-165h-97q-29 0 -41 12q-5 4 -5 7q-3 20 -15 96l-32 211l-32 211l-11 70v0v2v1l-1 2v1v1v1v1v1l-1 1v1v1v1v1v0v1v1l-1 1v1v0q-1 1 -1 5v0v2v0v0v0v0v0v0v-2q0 27 -25 45q-11 8 -23 11l-2 1h-3h-80q-7 0 -11.5 -4.5t-4.5 -11.5t4.5 -11.5t11.5 -4.5zM258 656h641
h-1q1 0 5 -1q6 -2 12 -5q21 -11 13 -40q-9 -30 -27 -112q-2 -7 -3 -14q-10 -45 -21 -98q-4 -16 -7 -32l-3 -12l2 4q-1 -3 -4 -7q-5 -8 -12 -15q-16 -18 -36 -20q-25 -4 -239 -27q-3 -1 -5 -1q-78 -8 -171 -18q-29 -4 -56 -6q-9 -2 -16 -2q-4 -1 -5 -1q-7 0 -11 -5.5
t-3.5 -12t6 -10.5t11.5 -4q1 1 6 1q6 1 16 2q27 3 56 6q93 10 170 18q3 1 5 1q215 23 240 27q31 4 55 30q14 15 22 30v2l1 1q1 5 2 13q4 15 7 32q11 53 21 97q2 7 3 14q18 82 26 111q16 52 -28 76q-14 8 -29 10h-2h-641q-7 0 -11.5 -4.5t-4.5 -11t4.5 -11.5t11.5 -5z
M368 -64q20 0 34 14t14 34t-14 34t-34 14t-34 -14t-14 -34t14 -34t34 -14zM800 -64q20 0 34 14t14 34t-14 34t-34 14t-34 -14t-14 -34t14 -34t34 -14z" />
    <glyph glyph-name="fenlei1" unicode="&#xe61a;" horiz-adv-x="1029" 
d="M176.5 84q-7.5 0 -13 5.5t-5.5 12.5v278q0 8 5.5 13.5t13 5.5t13 -5.5t5.5 -13.5v-278q0 -7 -5.5 -12.5t-13 -5.5zM349 479h-1q-7 1 -12 6.5t-5 13.5q11 149 -49 225q-24 31 -54 44q-41 -24 -49 -139q-4 -67 2 -130q1 -7 -3.5 -13t-12 -7t-13.5 4t-7 12q-7 66 -2 136
q10 148 78 174q5 2 11 1q5 -2 13 -5t28 -17.5t36 -34.5q31 -39 46 -95q19 -68 13 -158q-1 -7 -6 -12t-13 -5zM332 -34h-131q-43 0 -74 31t-31 74v340q0 44 31 75t74 31h131q44 0 74.5 -31t30.5 -75v-340q0 -43 -30.5 -74t-74.5 -31zM201 480q-28 0 -48.5 -20t-20.5 -49v-340
q0 -28 20.5 -48.5t48.5 -20.5h131q29 0 49 20.5t20 48.5v340q0 29 -20 49t-49 20h-131zM787 479h-210q-10 0 -16 10l-121 223q-8 14 5 24q102 68 237 68t237 -68q14 -10 6 -24l-122 -223q-5 -10 -16 -10zM588 515h188l108 199q-89 53 -202 53t-202 -53zM757 -34h-155
q-28 0 -48.5 18.5t-20.5 44.5v2l40 429q1 23 16.5 39t36.5 16h107q22 0 37.5 -16t15.5 -39l40 -429v-2q0 -26 -20 -44.5t-49 -18.5zM570 29q0 -11 9.5 -19t22.5 -8h155q13 0 22.5 8t10.5 19l-40 428v2q0 8 -5 14t-12 6h-107q-7 0 -11.5 -6t-4.5 -14v-2zM775 366h-191
q-7 0 -12.5 5t-5.5 13t5.5 13t12.5 5h191q7 0 12.5 -5t5.5 -13t-5.5 -13t-12.5 -5zM656 480q-15 0 -18 15l-16 88q-1 8 3 14t11.5 7.5t13.5 -3t8 -11.5l16 -88q1 -8 -3 -14t-11 -8h-4zM699 480h-3q-7 2 -11.5 8t-3.5 14l17 88q1 7 7.5 11.5t13.5 3t11.5 -7.5t3.5 -14
l-17 -88q-3 -15 -18 -15z" />
    <glyph glyph-name="fenlei49" unicode="&#xe644;" 
d="M478 394q0 -14 10 -24t24 -10t24 10t10 24t-10 24t-24 10t-24 -10t-10 -24zM478 529q0 -14 10 -24t24 -10t24 10t10 24t-10 24t-24 10t-24 -10t-10 -24zM938 532l-255 264v0l-1 1v0v0l-0.5 0.5l-1 1l-0.5 0.5v0h-1v0l-1 1h-1v0v0q-1 1 -1.5 1h-1h-0.5h-0.5h-1.5h-0.5h-1
h-1h-0.5h-0.5h-1h-1t-0.5 -0.5t-1 -0.5h-1l-0.5 -0.5t-1 -0.5t-1 -0.5l-0.5 -0.5l-0.5 -0.5l-0.5 -0.5q-1 0 -1 -1v0v0q-1 0 -1 -1h-0.5h-0.5l-0.5 -1l-0.5 -1v0v0q0 -1 -1 -1v0q-18 -37 -58.5 -65t-84.5 -29q-44 1 -85 29t-59 65v0v1v0h-0.5t-0.5 1t-0.5 1h-0.5v0q0 1 -1 1
v0v0l-1 1l-0.5 0.5t-1 0.5t-1 0.5l-0.5 0.5l-0.5 0.5l-0.5 0.5h-1.5t-0.5 0.5t-0.5 0.5h-1h-1h-0.5h-1h-1h-0.5h-1.5h-0.5h-0.5h-1h-1l-1 -1v0h-1h-1v-1v0h-1h-0.5t-0.5 -0.5t-0.5 -1l-0.5 -0.5h-0.5h-0.5v-1h-1l-255 -264q-11 -12 -1 -24l122 -154q4 -6 11.5 -6.5t12.5 3.5
l55 47l-53 -397q-1 -8 4 -14t13 -6h525q8 0 13.5 6t4.5 14l-54 397l56 -47q5 -4 12.5 -3.5t11.5 6.5l122 154q10 12 -2 24zM222 391l-101 127l22 22l103 -129zM726 455q-9 7 -19.5 1t-8.5 -18l56 -421h-485l57 421q2 12 -8.5 18t-19.5 -1l-25 -21l-105 132l181 188
q24 -34 61 -59q50 -32 102 -33v0v0v0v0q52 1 101 33q38 25 61 59l182 -188l-105 -132zM802 391l-24 20l103 129l22 -22z" />
    <glyph glyph-name="huidingbu" unicode="&#xe631;" 
d="M154 408l368 316h-20l367 -320q13 -11 23.5 1.5t-1.5 22.5l-368 320q-11 10 -21 0l-368 -316q-13 -10 -2.5 -22t22.5 -2zM80 800h864q7 0 11.5 4.5t4.5 11.5t-4.5 11.5t-11.5 4.5h-864q-7 0 -11.5 -4.5t-4.5 -11.5t4.5 -11.5t11.5 -4.5zM496 672v-720q0 -7 4.5 -11.5
t11.5 -4.5t11.5 4.5t4.5 11.5v720q0 7 -4.5 11.5t-11.5 4.5t-11.5 -4.5t-4.5 -11.5z" />
    <glyph glyph-name="cf-c14" unicode="&#xe623;" 
d="M842.5 296q-10.5 0 -18 -7t-7.5 -18v0v0v0v-179q0 -21 -14.5 -35.5t-35.5 -14.5h-213v0h-298q-21 0 -35.5 14.5t-14.5 35.5v179q0 11 -7.5 18t-18 7t-17.5 -7t-7 -18v-184q0 -40 27.5 -67.5t67.5 -27.5h521q40 0 67.5 27.5t27.5 67.5v184q0 11 -7 18t-17.5 7zM840 803v0
l-7 11h-632l-7 -10q-57 -72 -89 -137.5t-37.5 -113t-1 -79t16.5 -57.5q21 -42 59.5 -67.5t83.5 -25.5h5q89 4 150 67q55 -62 138 -62q85 0 140 66q83 -68 158 -68q64 0 108 51q26 30 33 74t-4.5 91.5t-26.5 89.5t-37.5 83.5t-32.5 58.5t-17 28zM887 410q-29 -34 -70 -34
q-28 0 -61.5 16t-50.5 29t-30 25v169l0.5 0.5l0.5 0.5q0 11 -7.5 18t-17.5 7t-17.5 -7t-7.5 -18v0v-184q-40 -54 -107 -54q-31 0 -57 13t-36.5 24.5t-18.5 22.5v178q0 11 -7 18t-17.5 7t-17.5 -7t-7 -18v-177q-10 -12 -22.5 -24t-42.5 -26t-64 -15h-3v0q-28 0 -55.5 16.5
t-43.5 48.5q-9 20 -12.5 46t2 65.5t33 95t76.5 118.5h580q18 -28 35.5 -60.5t35 -76t27 -82t6.5 -75.5t-23 -60z" />
    <glyph glyph-name="meishi" unicode="&#xe704;" horiz-adv-x="1042" 
d="M62 159h900q26 0 45 19t19 45.5t-19 45.5t-45 19h-5q-19 131 -106 230.5t-212 136.5q1 13 1 18q0 53 -37.5 91t-90.5 38t-91 -38t-38 -91q0 -5 2 -18q-125 -37 -212 -136.5t-106 -230.5h-5q-26 0 -45 -19t-19 -45.5t19 -45.5t45 -19v0v0zM512 737q27 0 45.5 -18.5
t18.5 -45.5q0 -1 -0.5 -2.5t-0.5 -2.5q-35 5 -63 5t-63 -5q0 1 -0.5 2.5t-0.5 2.5q0 27 18.5 45.5t45.5 18.5v0v0zM241 393q66 106 184 140q2 0 5 1v0v0q3 1 6 1q14 0 23.5 -10t9.5 -23q0 -12 -8 -21t-19 -11v0q-93 -27 -145 -108q-8 -19 -30 -19q-13 0 -22.5 9.5t-9.5 22.5
q0 10 6 18v0v0zM962 95h-900q-26 0 -45 -19t-19 -45.5t19 -45.5t45 -19h900q26 0 45 19t19 45.5t-19 45.5t-45 19v0v0zM962 95z" />
    <glyph glyph-name="zengjia" unicode="&#xe626;" 
d="M167 320q-26 0 -44 18t-18 43.5t18 43.5t44 18h280v280q0 26 18 44t43.5 18t43.5 -18t18 -44v-280h280q26 0 44 -18t18 -43.5t-18 -43.5t-44 -18h-280v-280q0 -26 -18 -44t-43.5 -18t-43.5 18t-18 44v280h-280z" />
    <glyph glyph-name="dingdan" unicode="&#xe642;" 
d="M512 891q103 0 197 -40t162 -108t108 -162t40 -197t-40 -197t-108 -162t-162 -108t-197 -40t-197 40t-162 108t-108 162t-40 197t40 197t108 162t162 108t197 40zM689 596h-53v35h-48q-26 36 -76 36t-76 -36h-48v-35h-53q-29 0 -49.5 -20.5t-20.5 -50.5v-353
q0 -30 20.5 -50.5t49.5 -20.5h354q29 0 50 20.5t21 50.5v353q0 30 -21 50.5t-50 20.5v0zM422 600h40q0 15 14.5 25.5t35.5 10.5t35.5 -10.5t14.5 -25.5h40v-72h-180v72v0zM728 168q0 -15 -10.5 -26t-25.5 -11h-360q-15 0 -25.5 11t-10.5 26v360q0 15 10.5 25.5t25.5 10.5h54
v-72h252v72h54q15 0 25.5 -10.5t10.5 -25.5v-360v0zM638 240h-252q-8 0 -13 -5.5t-5 -13t5 -12.5t13 -5h252q8 0 13 5t5 12.5t-5 13t-13 5.5v0zM638 420h-252q-8 0 -13 -5.5t-5 -13t5 -12.5t13 -5h252q8 0 13 5t5 12.5t-5 13t-13 5.5v0zM638 330h-252q-8 0 -13 -5.5t-5 -13
t5 -12.5t13 -5h252q8 0 13 5t5 12.5t-5 13t-13 5.5v0zM638 330z" />
    <glyph glyph-name="service" unicode="&#xe63f;" 
d="M279 37q-11 -10 -11.5 -25t10.5 -26l77 -79q26 -27 66 -27.5t68 26.5l502 492q28 27 29 67q0 39 -27 67l-77 79q-10 11 -25 11q-16 0 -26 -10q-24 -24 -60 -23.5t-59 24.5q-25 25 -24 60q0 35 25 59q11 11 11 26t-10 25l-77 80q-28 28 -68 28q-38 0 -66 -27l-502 -492
q-29 -28 -29 -67q-1 -39 27 -67l77 -79q10 -11 25 -11q17 1 26 10q24 24 60 23.5t59 -24.5q25 -26 24 -60q0 -35 -25 -60v0zM353 363l202 203q11 10 26 10.5t25.5 -10.5t10.5 -26t-11 -25l-202 -203q-11 -10 -26 -10.5t-25.5 10.5t-10.5 26t11 25zM461 255l202 203
q11 10 26 10t25.5 -10.5t10.5 -25.5t-11 -26l-202 -202q-11 -11 -26 -11t-25.5 10.5t-10.5 25.5t11 26z" />
    <glyph glyph-name="ku" unicode="&#xe608;" 
d="M898 159l-37 452q-4 60 -52 101t-112 41h-358q-64 0 -112 -41t-53 -101l-36 -452q-7 -77 42 -132t124 -55h427q75 0 124 55t43 132zM711 6h-386q-68 0 -112 50.5t-38 120.5l34 414q4 54 47.5 91.5t100.5 37.5h323q57 0 100 -37.5t48 -91.5l33 -414q6 -70 -38.5 -120.5
t-111.5 -50.5zM694 564q-15 -62 -66 -102.5t-116 -40.5t-116 40.5t-66 102.5h-38q16 -77 77.5 -128.5t142.5 -51.5t142.5 51.5t77.5 128.5h-38z" />
    <glyph glyph-name="ruzhuhetong" unicode="&#xe611;" 
d="M716 646h-395q-57 0 -57 -58v-416q0 -30 16.5 -46.5t45.5 -16.5h387q63 0 63 63v416q-2 27 -18 42.5t-42 15.5zM314 534q0 9 6 15.5t15 6.5h116q8 0 14.5 -6.5t6.5 -15.5v-115q0 -9 -6 -15.5t-15 -6.5h-116q-9 0 -15 6t-6 16v115zM704 200h-372q-8 0 -14 5.5t-6 13.5
t6 13.5t14 5.5h371q8 0 13.5 -5.5t5.5 -13.5q1 -8 -4.5 -13.5t-13.5 -5.5zM704 311h-372q-8 0 -14 6t-6 13.5t6 13t14 5.5h371q8 0 13.5 -5t5.5 -14q1 -7 -4.5 -13t-13.5 -6zM704 413h-172q-7 0 -13 6t-6 13.5t6 13.5t13 6h172q8 0 13.5 -6t5.5 -13.5t-5.5 -13.5t-13.5 -6z
M704 517h-172q-7 0 -13 6t-6 13.5t6 13.5t13 6h172q8 0 13.5 -6t5.5 -13.5t-5.5 -13.5t-13.5 -6zM512 896q-139 0 -257 -68.5t-186.5 -186.5t-68.5 -257t68.5 -257t186.5 -186.5t257 -68.5t257 68.5t186.5 186.5t68.5 257t-68.5 257t-186.5 186.5t-257 68.5zM806 172
q0 -46 -24.5 -70.5t-69.5 -24.5h-387q-43 0 -69 25.5t-26 69.5v416q0 43 24 66.5t67 23.5h395q40 0 65 -25t25 -65v-416z" />
    <glyph glyph-name="gerenzhongxinr" unicode="&#xe624;" 
d="M855 -29q-9 0 -9 9q0 77 -32.5 146t-92.5 118q-7 6 -1 13t13 1q63 -51 97.5 -124t34.5 -154q0 -9 -10 -9v0zM155 -29q-9 0 -9 9q0 73 28 140q27 65 77 114.5t114 76.5q67 29 140 29q9 0 18 -1q9 0 8.5 -9.5t-9.5 -9.5q-8 1 -17 1q-92 0 -170.5 -45.5t-124.5 -124.5
t-46 -171q0 -9 -9 -9v0zM511 320q-97 0 -165.5 68.5t-68.5 165.5t68.5 166t165.5 69t166 -69t69 -166t-69 -165.5t-166 -68.5z" />
    <glyph glyph-name="shouye" unicode="&#xe609;" 
d="M949 377l-440 411l-441 -410q-6 -6 -6.5 -15t5.5 -15.5t15 -6.5t15 6l412 383l411 -384q6 -6 14 -6q10 0 16 7q6 6 6 15t-7 15v0zM949 377zM815 368q-9 0 -15.5 -6t-6.5 -15v-327h-170v227h-228v-227h-171v327q0 9 -6 15t-15 6t-15.5 -6t-6.5 -15v-370h257v228h142v-228
h256v370q0 9 -6 15t-15 6v0zM815 368zM665 674h128v-114q0 -9 6.5 -15t15.5 -6t15 6t6 15v157h-171q-9 0 -15 -6.5t-6 -15.5t6 -15t15 -6v0zM665 674z" />
    <glyph glyph-name="kur" unicode="&#xe625;" 
d="M839 680q-2 29 -23 48.5t-51 19.5h-516q-29 0 -50.5 -19.5t-22.5 -48.5l-35 -597q-2 -29 18 -50t49 -21h601q30 0 49.5 21t17.5 50zM508.5 459q-67.5 0 -115.5 48t-48 115q0 8 5 13t12.5 5t12.5 -5t5 -13q0 -53 37.5 -90.5t91 -37.5t91 37.5t37.5 90.5q0 8 5 13t12.5 5
t12.5 -5t5 -13q0 -67 -48 -115t-115.5 -48z" />
    <glyph glyph-name="yituikuan" unicode="&#xe612;" horiz-adv-x="1812" 
d="M885 694q75 0 140.5 -33.5t108.5 -92.5l40 -10q-45 74 -122 118.5t-167 44.5q-87 0 -163 -42l39 -11q59 26 124 26v0zM885 694zM1089 711l21 -17l7 26l24 14l-24 14l-7 27l-21 -18l-29 2l11 -25l-11 -25zM1089 711zM713 770l-22 16l-5 -28l-23 -17l25 -11l8 -26l20 20
l28 1l-12 24l9 26zM713 770zM905 801l-16 21l-13 -24l-27 -10l20 -18v-27l25 13l27 -8l-4 27l16 22zM905 801zM1223 639l-23 16l-4 -27l-22 -16l26 -13l10 -26l19 20h28l-14 24l8 26zM1223 639zM1527 435l-1172 314q-21 6 -40.5 -5t-25.5 -33l-84 -312q-5 -22 6 -41.5
t33 -24.5l1171 -314q21 -6 40.5 5t25.5 33l84 312q5 22 -6 41.5t-32 24.5v0zM1535 363l-77 -286q-4 -16 -18.5 -24.5t-30.5 -4.5l-1145 307q-17 5 -25 19.5t-4 30.5l77 286q4 16 18.5 24.5t30.5 4.5l1146 -307q16 -5 24 -19.5t4 -30.5v0zM1535 363zM885 869q167 0 297 -101
t172 -258l30 -8q-41 171 -180 282.5t-319 111.5q-108 0 -204.5 -42.5t-168.5 -118.5l30 -8q67 67 155.5 104.5t187.5 37.5v0zM885 869zM1009 100q-59 -26 -124 -26q-75 0 -140.5 33.5t-108.5 92.5l-40 10q45 -74 122 -118.5t167 -44.5q87 0 163 42l-39 11v0zM1009 100z
M720 44l-22 17l-6 -26l-24 -14l24 -14l6 -26l22 17l28 -2l-11 25l11 25zM720 44zM885 -39l16 -22l13 25l27 9l-20 19v27l-25 -13l-26 7l4 -26l-17 -23zM885 -39zM544 130l22 -18l6 27l22 15l-24 14l-8 26l-20 -17l-28 2l12 -26l-9 -25zM544 130zM885 -101q-167 0 -297 101.5
t-172 257.5l-29 8q40 -171 179 -282.5t319 -111.5q108 0 204.5 42.5t168.5 118.5l-30 8q-67 -67 -155.5 -104.5t-187.5 -37.5v0zM885 -101zM1080 -2l22 -16l5 28l22 17l-24 11l-8 26l-20 -20l-28 -1l12 -24l-8 -26zM1080 -2zM651 524l-135 35l-20 4l14 52l34 -10l143 -37
l35 -9l-10 -32l-21 -81l-7 -28l-34 10l-111 29l-9 -35q-3 -12 -1 -16t6.5 -6t22.5 -7q61 -16 72 -18.5t15.5 0t7.5 9.5t5 14l3 13q36 -22 54 -27q-12 -27 -17.5 -37.5t-13 -17t-19.5 -8.5t-29 1.5t-118 30.5q-27 7 -38 16.5t-13 21.5t2 25l30 113l4 19l57 -16l-5 -12l-3 -12
l89 -24zM835 316q-1 13 -5 37q3 0 5.5 1t3 3.5t3.5 11.5l32 123l7 28l23 -7l100 -27l26 -6l-6 -21l-19 -72l-5 -21l-5 2l18 -18l-27 -18q1 -2 2 -3l8 -11l11 -15q-23 -11 -41 -23q-9 12 -17 24q-7 11 -11 17l-9 11l-9 12q-1 -3 -2 -8t1 -20q-33 -2 -36 -2l-31 -3l-4 -1
q37 -12 60.5 -18.5t96.5 -21.5q-15 -23 -19 -33l-4 -8q-16 3 -38.5 9t-42.5 11t-30 8q-16 4 -34.5 10.5t-25.5 11.5t-16 13t-13 9q-5 1 -11 -0.5t-25 -12.5q-2 10 -6.5 23t-4.5 15l-6 10q14 7 21 9l12 4l6 2l16 62l-12 3l-12 2l13 47l17 -5l28 -8l26 -5l-8 -26l-22 -86
q11 -12 21 -19zM787 523q24 6 44 15q11 -23 21 -52q-18 -5 -47 -16q-5 21 -7.5 26.5t-10.5 26.5zM923 387l-27 7l-10 -38q10 1 22 3q-5 5 -11 15q14 5 26 13zM966 420l-59 16l-1 -6l59 -15zM915 465l59 -15l1 6l-58 15zM961 365q3 2 13 9l-25 6q7 -8 12 -15zM1139 224
q-1 4 -2 7.5t-9 15.5l-8 -28q-2 -8 -5.5 -13t-12 -6t-40.5 3v10v11q0 5 -1 11l-6 -8q-16 16 -34 29q12 12 18 19.5t16 21.5l-17 4l10 38l28 -8l87 -23l29 -7l-11 -38l-21 7q2 -5 6 -13t10 -16q-9 -4 -37 -17zM1216 301l-3 -4l-7 -7q-19 24 -23 29l-1 -2l-3 -10l-29 9l-65 16
l-26 7l10 34l25 -7l66 -17l26 -6l-1 -2q5 5 12 16t11 18t10 20.5t8 19.5l5 14q23 -10 50 -18q-5 -11 -7 -15.5t-3 -7.5l44 -11l25 -6q-4 -8 -6 -13l-1 -3t-2.5 -5.5t-2.5 -6.5q-5 -12 -9 -22q-4 -11 -13 -30q-16 7 -35 16q-1 -2 -2 -7q-1 -4 -4 -12t-3 -9l-1 -5
q-1 -5 1 -17.5t5.5 -26t25.5 -44.5q-24 -16 -42 -32q-15 23 -20.5 36t-8.5 24q-15 -15 -29.5 -23t-34.5 -15q-4 6 -5 10l-11 23l-7 12q14 3 28.5 10t22.5 13.5t14 16.5t10 19.5t5.5 14t1.5 5.5l1 3zM1067 294q8 -7 22 -16l3 9zM1087 268q-2 -3 -3 -4l-9 -11l-4 -6l-4 -5
q9 -2 11 -1t4 7zM1159 354l-62 17l-27 6l9 37l28 -8l14 -4l2 4l-24 6l-27 6l10 37l25 -8l25 -7l2 14l45 -11l-4 -14l17 -5l27 -6l-10 -36l-26 8l-17 5l-1 -5h3l28 -7l-10 -37zM1132 264q9 3 19 8l-15 4zM1249 343q-6 -8 -13 -19l27 -7q5 9 11 20z" />
    <glyph glyph-name="yishouhuo" unicode="&#xe613;" 
d="M923 568l-56 185q-5 18 -21 30.5t-34 12.5h-600q-18 0 -34 -12.5t-21 -30.5l-56 -185q-4 -12 -4 -34v-505q0 -23 17 -40t40 -17h716q23 0 40 17t17 40v505q0 22 -4 34v0zM197 741q1 5 6 9t9 4h600q4 0 9 -4t6 -9l55 -182h-740l55 182v0zM885 29q0 -6 -4.5 -10.5
t-10.5 -4.5h-716q-6 0 -10.5 4.5t-4.5 10.5v489h746v-489v0zM216 288h290q9 0 15 6t6 14.5t-6 14.5t-15 6h-290q-9 0 -15 -6t-6 -14.5t6 -14.5t15 -6v0zM417 219h-198q-9 0 -15 -6t-6 -15t6 -15t15 -6h198q8 0 14.5 6t6.5 15t-6.5 15t-14.5 6v0zM649 183q6 -6 16 -6h1
q9 0 15 6l160 160q6 6 6 14.5t-6 14.5t-15 6t-15 -6l-146 -146l-64 64q-6 6 -15 6t-15 -6t-6 -14.5t6 -14.5l78 -78v0z" />
    <glyph glyph-name="fenlei6" unicode="&#xe61b;" 
d="M543 321q-12 -17 -31 -17q-18 0 -30 17q-7 11 -19.5 13.5t-23 -4t-13.5 -19t3 -23.5q11 -17 33 -32t50 -15t50.5 14.5t32.5 31.5q7 11 4.5 23.5t-13.5 19.5t-23.5 4.5t-19.5 -13.5zM852 129l-0.5 0.5t-1.5 0.5l-74 75q-10 9 -22.5 9t-22 -9t-9.5 -22t9 -22l60 -60
q-95 -102 -279 -102t-278 103l58 59q9 9 9 22t-9 22t-22 9t-22 -9l-79 -79v-0.5v-0.5l-2.5 -2.5t-1.5 -2.5q-1 -1 -2 -3t-1 -2.5t-0.5 -2.5t-1 -3t-0.5 -3v-3t0.5 -3t0.5 -3t0.5 -3t1 -2.5t1.5 -2.5t2 -3v-0.5v-0.5q112 -149 346.5 -149t346.5 149q7 10 5.5 23t-12.5 21v0z
M855 636q-6 11 -19 14t-24 -4t-13.5 -19.5t3.5 -23.5q71 -113 71 -259q0 -60 -13 -111q-3 -12 3.5 -23t19.5 -15h7q11 0 19.5 6.5t11.5 16.5q14 58 14 126q0 164 -80 292zM309 701q89 68 202 68q115 0 205 -70q8 -7 19 -7q15 0 24 12q8 11 6.5 23.5t-11.5 20.5
q-106 84 -243 84q-134 0 -240 -82q-10 -8 -11.5 -20.5t6 -23t20.5 -12t23 6.5zM165 233q-13 51 -13 111q0 148 72 261q7 11 4 23.5t-14 19.5t-23.5 4t-19.5 -14q-81 -128 -81 -294q0 -68 14 -126q3 -10 11.5 -16.5t19.5 -6.5h7q13 4 19.5 15t3.5 23zM351 582
q-56 0 -95.5 -34t-39.5 -81t39.5 -81t95.5 -34t95.5 34t39.5 81t-39.5 81t-95.5 34zM351 415q-30 0 -51.5 15.5t-21.5 36.5t21.5 36.5t51.5 15.5t51.5 -15.5t21.5 -36.5t-21.5 -36.5t-51.5 -15.5zM674 582q-56 0 -95.5 -34t-39.5 -81t39.5 -81t95.5 -34t95.5 34t39.5 81
t-39.5 81t-95.5 34zM673.5 415q-29.5 0 -51 15.5t-21.5 36.5t21.5 36.5t51 15.5t51.5 -15.5t22 -36.5t-22 -36.5t-51.5 -15.5z" />
    <glyph glyph-name="fenlei42" unicode="&#xe636;" 
d="M900 62q-29 47 -108 176t-121 199q14 30 41.5 87.5t40.5 84.5q9 19 -4 35q-35 45 -31 159q1 11 -7.5 19.5t-20.5 8.5h-102q-9 0 -17.5 -6t-10.5 -15q-10 -62 -45 -76q-26 -10 -42 14.5t-18 54.5q0 12 -8 20t-20 8h-97q-13 1 -23.5 -6t-10.5 -22q-5 -116 -34 -152
q-15 -19 -8 -35q14 -31 38.5 -89.5t36.5 -86.5q-106 -184 -187 -332q-3 -5 -9 -15.5t-8 -15t-5.5 -13t-4 -14.5t1 -14.5t6.5 -16.5q11 -22 33 -40t46 -28q49 -17 83.5 -6.5t67.5 48.5q16 14 30 14t33 -10.5t34.5 -23.5t34.5 -23t32 -10q29 0 76 31t62 36q9 3 21 -4.5t26 -22
t16 -16.5q30 -23 69 -16q32 6 64.5 30.5t49.5 54.5q8 14 -1 29v0zM493 676q43 -3 74.5 25t43.5 73h50q1 -95 36 -153q-11 -22 -35 -74t-37 -80h-238q-5 13 -16.5 36t-12.5 24q-8 19 -23 53.5t-21 46.5q32 51 38 147h50q9 -40 32 -68t59 -30zM801 18q-16 -11 -29.5 -11
t-20 4.5t-19.5 16.5t-22 19q-14 9 -29.5 13t-26.5 4t-28.5 -7.5t-25 -11.5t-27.5 -16t-26 -15q-1 -1 -8 -5.5t-9.5 -6t-10 -4t-9.5 0.5q-7 4 -14.5 9t-17.5 13t-13 11q-51 39 -99 30q-38 -8 -72 -48q-18 -20 -41.5 -18t-45 15.5t-35.5 33.5q24 43 65.5 116t76.5 134t67 114
h241q3 -6 26 -44q35 -58 98.5 -165.5t90.5 -151.5q-12 -16 -36 -30z" />
    <glyph glyph-name="xianliang" unicode="&#xe7d8;" 
d="M479 429h83v-35h-83v35zM479 378h83v-35h-83v35zM286 527l-238 -200l238 -200h688v400h-688zM645 447h193v-67h-193v67zM618 370h247v-15h-247v15zM416 254h-8h-5h-9l-1 2q0 6 -2 13l-1 4l3 -1h18v0q7 0 10 4q6 5 5 19q0 32 -25 60l-1 1l24 73h-38v-220h-19v237h76v-17
l-23 -69q25 -31 25 -65q0 -38 -29 -41zM606 226q-4 -5 -8 -11l-2 -2l-2 1q-75 34 -92 112h-23v-87q24 12 40 21l3 2v-4q0 -7 2 -15v-2h-2q-22 -11 -43 -22q-6 -4 -12 -9l-2 -1l-12 14l1 2q4 4 5 8t1 10v203h120v-120h-59q7 -26 18 -42q23 14 49 32l2 1l12 -15l-3 -2
q-24 -15 -50 -30q17 -21 56 -40l3 -1zM866 217h-250v15h116v13h-96v15h96v12h-86v72h190v-72h-86v-12h97v-15h-97v-13h116v-15zM663 432h157v-11h-157v11zM750 329h68v-14h-68v14zM664 329h68v-14h-68v14zM664 301h68v-14h-68v14zM750 301h68v-14h-68v14zM663 407h157v-12
h-157v12z" />
    <glyph glyph-name="shouyer" unicode="&#xe61f;" 
d="M962 343l-450 450l-450 -450h139v-368h212v264h209v-264h210v368h130zM886 710h-217v-1l217 -218v219z" />
    <glyph glyph-name="mingpian" unicode="&#xe640;" 
d="M308 656q0 -20 6 -35.5t15 -23.5t17 -12.5t14 -5.5l6 -2h297q17 0 29 9.5t18 24t8.5 25.5t3.5 21h-3h3q0 29 -10 48.5t-24.5 27t-28.5 11t-24 2.5l-10 -1q0 29 -11.5 50t-28 30t-33 14t-27.5 6h-12q-33 0 -57.5 -10.5t-35 -25t-16.5 -29.5t-6 -25l-1 -10q-27 0 -46 -9
t-27.5 -22t-13 -26t-4.5 -22v-9zM513 782q24 0 41 -16.5t17 -39.5t-17 -39.5t-41 -16.5t-40.5 16.5t-16.5 39.5t16.5 39.5t40.5 16.5zM969 657h-201q3 -38 -5.5 -66t-22.5 -40t-29 -18.5t-25 -6.5h-11h-315q-29 0 -50.5 11t-30.5 27.5t-15 35.5t-4.5 34t0.5 23h-205
q-23 0 -39 -15.5t-16 -37.5v-604q0 -22 16 -38t39 -16h914q23 0 39 16t16 38v604q0 22 -16 37.5t-39 15.5zM604 378h286q15 0 24 -6.5t9 -19.5t-9 -19.5t-24 -6.5h-286q-14 0 -23.5 6.5t-9.5 19.5t9.5 19.5t23.5 6.5zM309.5 443q36.5 0 63 -25.5t26.5 -61t-26 -61t-63 -25.5
t-63 25.5t-26 61t26 61t62.5 25.5zM485 111h-350v105q0 1 0.5 4t5.5 10.5t13.5 15t28 16t45.5 14.5l84 -70l69 67q4 0 11 -1t25 -6t32 -12t25 -20.5t11 -30.5v-92zM737 120h-137q-30 0 -30 24t30 24h137q30 0 30 -24t-30 -24zM894 222h-292q-32 0 -32 25q0 13 9 19t23 6h292
q14 0 23 -6.5t9 -18.5q0 -25 -32 -25z" />
    <glyph glyph-name="gouwucheweikong" unicode="&#xe606;" 
d="M363 322v18l87 100q-15 -1 -26 -1h-56v19h112v-15l-74 -87l-14 -16q15 2 29 2h63v-20h-121zM564 447v21l98 112q-17 -1 -30 -1h-62v21h125v-17l-83 -97l-16 -18q18 1 33 1h71v-22h-136v0zM792 557v31l146 168q-25 -1 -44 -1h-93v31h187v-26l-124 -145l-24 -27q26 2 49 2
h106v-33h-203zM776 174q16 0 25 13l164 239q10 15 2 30q-11 21 -27 18q-7 -1 -20 -14q-5 -4 -14 -16t-15 -21l-7 -10l-123 -180h-503v359q0 11 -6.5 19t-17.5 10l-178 35q-12 2 -22 -5t-12.5 -19t4.5 -22t19 -13l154 -29v-121v-2v-2v-239q0 -13 8.5 -21.5t21.5 -8.5h5v-84
q-39 -30 -39 -79q0 -40 27.5 -68.5t66.5 -28.5t67 28.5t28 68.5q0 20 -8 38h244q-7 -18 -7 -38q0 -40 27.5 -68.5t66.5 -28.5t66.5 28.5t27.5 68.5t-27.5 68.5t-66.5 28.5h-1h-1h-2h-410v66h483zM707.5 49q14.5 0 24.5 -11t10 -26.5t-10 -26.5t-24.5 -11t-25 11t-10.5 26.5
t10.5 26.5t25 11zM324 11.5q0 -15.5 -10 -26.5t-24.5 -11t-25 11t-10.5 26.5t10.5 26.5t25 11t24.5 -11t10 -26.5z" />
    <glyph glyph-name="i" unicode="&#xe659;" 
d="M512 -128q-139 0 -257 68.5t-186.5 186.5t-68.5 257t68.5 257t186.5 186.5t257 68.5t257 -68.5t186.5 -186.5t68.5 -257t-68.5 -257t-186.5 -186.5t-257 -68.5v0zM512 826q-90 0 -172 -35t-141 -94t-94 -141t-35 -172t35 -172t94 -141t141 -94t172 -35t172 35t141 94
t94 141t35 172t-35 172t-94 141t-141 94t-172 35v0zM512 100q-11 1 -53 -1h-12q2 0 8 1v398q-1 -1 10.5 -1.5t27.5 0t33.5 1t29 1t13.5 -0.5v-398h-57zM512 555v0q-2 0 -16.5 -1.5t-22.5 -0.5t-8 7v103q0 6 8 7.5t22.5 -0.5t16.5 -2v0q2 0 16.5 2t22.5 0.5t8 -7.5v-103z" />
    <glyph glyph-name="yes" unicode="&#xe62b;" 
d="M512 870q-99 0 -189 -38.5t-155 -103.5t-103.5 -155t-38.5 -189t38.5 -189t103.5 -155t155 -103.5t189 -38.5t189 38.5t155 103.5t103.5 155t38.5 189t-38.5 189t-103.5 155t-155 103.5t-189 38.5zM512 -51q-88 0 -169 34.5t-139 92.5t-92.5 139t-34.5 169t34.5 169
t92.5 139t139 92.5t169 34.5t169 -34.5t139 -92.5t92.5 -139t34.5 -169t-34.5 -169t-92.5 -139t-139 -92.5t-169 -34.5zM450 273l-179 178l-44 -44l223 -223l342 342l-44 44z" />
    <glyph glyph-name="kefu-copy" unicode="&#xe639;" 
d="M390 313q-23 0 -39 -16t-16 -38.5t16 -38.5t39 -16q17 0 30.5 9.5t19.5 25.5l-40 20l40 19q-6 16 -19.5 25.5t-30.5 9.5v0zM643 204q17 0 31 9.5t20 25.5l-40 19l40 20q-6 16 -20 25.5t-31 9.5q-22 0 -38 -16t-16 -38.5t16 -38.5t38 -16v0zM889 332q1 13 0 26
q4 180 -101 287q-49 51 -119 77q-5 48 -51 81t-109 33t-109 -33t-51 -81q-69 -26 -119 -77q-105 -107 -101 -287v-31q-34 -35 -22 -83q12 -44 55 -59q20 -13 44 -13q25 -108 108 -174t199 -66q115 0 198 66t108 174h3q30 0 54 19q31 18 41 53q14 52 -28 88zM509.5 807
q46.5 0 82.5 -21t46 -53q-59 16 -128 16h-2q-68 0 -127 -16q10 32 46 53t82.5 21zM513 -39h-1q-126 0 -206 82t-80 211v16q0 9 2 46q26 9 49 26t36.5 32.5t25.5 33.5t15.5 25.5t5.5 12.5q5 14 -8.5 19t-18.5 -8l-5 -10t-13.5 -22.5t-23 -30.5t-33 -29t-43.5 -23l-2 2
t-4.5 3.5t-6.5 4t-7.5 3t-9 1.5t-10.5 -1v3q-3 162 88 255q89 90 245 90h1v-17h2l-1 17q157 0 245 -90q92 -93 88 -255v-3q-13 0 -22 -7t-11.5 -13t-1.5 -8q-1 -1 -1 -2q-1 -5 -2 -29q-1 -1 -2 -1q-20 20 -49.5 34t-50 19.5t-58.5 13.5q-59 13 -87.5 24t-55.5 28.5t-44 33.5
t-32.5 34t-20 24.5t-6.5 10.5q-8 13 -20.5 5.5t-4.5 -20.5q3 -5 8 -12.5t21.5 -27t35 -36.5t48 -36.5t60.5 -30.5q30 -12 92 -25q41 -9 62 -14.5t49.5 -21.5t46.5 -40l2 -2v-2q0 -29 -5 -55q-38 -61 -99.5 -99t-138.5 -46q-13 17 -42 17q-19 0 -33 -9t-14 -22t14 -22.5
t33 -9.5q18 0 31 7.5t16 18.5q50 6 95 24q64 26 112 75l14 16q-28 -87 -99.5 -137.5t-169.5 -50.5v0z" />
    <glyph glyph-name="tixian" unicode="&#xe6a5;" 
d="M632 442h-240q-6 0 -10.5 4t-4.5 10.5t4.5 11t10.5 4.5h240q6 0 10.5 -4.5t4.5 -11t-4.5 -10.5t-10.5 -4zM671 327h-318q-6 0 -10.5 4t-4.5 10.5t4.5 11t10.5 4.5h318q6 0 10.5 -4.5t4.5 -11t-4.5 -10.5t-10.5 -4zM512 102q-15 0 -15 15v340q0 6 4.5 10.5t10.5 4.5
t10.5 -4.5t4.5 -10.5v-340q0 -15 -15 -15zM512 442q-7 0 -11 4l-131 131q-11 11 0 21q10 11 21 0l131 -131q11 -10 0 -21q-4 -4 -10 -4v0zM512 442q-7 0 -11 4q-11 11 0 21l132 132q11 11 21.5 0.5t-0.5 -21.5l-132 -132q-4 -4 -10 -4v0zM963 113h-353q-6 0 -10.5 4.5
t-4.5 10.5t4.5 10.5t10.5 4.5h353q6 0 10.5 -4.5t4.5 -10.5t-4.5 -10.5t-10.5 -4.5zM963 113q-6 0 -11 5l-130 130q-11 11 0 22q10 10 21 0l131 -131q10 -11 0 -21q-5 -5 -11 -5v0zM832 -17q-6 0 -10 4q-11 11 0 21l130 131q11 10 22 0q10 -11 0 -21l-131 -131q-4 -4 -11 -4
v0zM512 -82q-126 0 -233.5 62.5t-170 170t-62.5 233.5t62.5 233.5t170 170t233.5 62.5q86 0 165 -30q135 -51 218 -171.5t83 -264.5q0 -6 -4.5 -10.5t-10.5 -4.5q-15 0 -15 15q0 135 -77.5 247.5t-204.5 160.5q-74 28 -154 28q-180 0 -308 -128t-128 -308t128 -308t308 -128
q15 0 15 -15t-15 -15v0zM512 -95v0q-97 0 -186 38t-153 102t-102 153t-38 186t38 186t102 153t153 102t186 38q88 0 169 -31q139 -53 224.5 -176.5t85.5 -271.5q0 -11 -8 -19.5t-19.5 -8.5t-20 8.5t-8.5 19.5q0 131 -75.5 240.5t-197.5 155.5q-73 27 -150 27
q-115 0 -212.5 -56.5t-154 -154t-56.5 -212.5t56.5 -212.5t154 -154t212.5 -56.5q11 0 19.5 -8.5t8.5 -19.5t-8.5 -19.5t-19.5 -8.5zM512 837q-92 0 -176 -36t-144.5 -96.5t-96.5 -144.5t-36 -176t36 -176t96.5 -144.5t144.5 -96.5t176 -36q2 0 2 2t-2 2q-91 0 -174 35.5
t-143.5 96t-96 143.5t-35.5 174t35.5 174t96 143.5t143.5 96t174 35.5q82 0 159 -29q130 -49 210 -165t80 -255q0 -2 2 -2t2 2q0 141 -80.5 257.5t-212.5 166.5q-77 29 -160 29zM832 -30q-11 0 -19 8t-8 19.5t8 19.5l83 83h-286q-11 0 -19.5 8.5t-8.5 20t8.5 19.5t19.5 8
h286l-83 83q-8 8 -8 20t8 20t19 8q12 0 20 -9l130 -130h1q4 -4 6 -10q2 -5 2 -10q0 -12 -9 -20l-130 -130q-8 -8 -20 -8zM932 100l-101 -101l-1 -1q0 -1 1 -2t3 0l104 104h-6v0zM960 128l1 -1q1 -1 2 -1t1.5 0.5t0.5 1.5v0v1q-1 1 -2 1h-1h-1zM610 130q-2 0 -2 -2t2 -2h312
l2 2l-2 2h-312zM932 156h6l-104 104q-2 2 -3 1t-1 -2t1 -1zM512 89q-11 0 -19.5 8.5t-8.5 19.5v197h-131q-12 0 -20 8t-8 19.5t8 19.5t20 8h131v60h-92q-11 0 -19.5 8t-8.5 19.5t8.5 19.5t19.5 8h52l-83 84q-9 8 -9 20t9 20q8 8 19.5 8t19.5 -9l112 -111l112 112q8 9 19.5 9
t19.5 -8.5t8 -20t-8 -19.5l-84 -84h53q11 0 19.5 -8.5t8.5 -20t-8.5 -19.5t-19.5 -8h-92v-59h131q11 0 19.5 -8.5t8.5 -20t-8.5 -19.5t-19.5 -8h-131v-197q0 -12 -8.5 -20t-19.5 -8zM510 314v-197q0 -2 2 -2t2 2v197h-4zM540 339h131q2 0 2 2.5t-2 2.5h-131v-5zM510 339h4v5
h-4v-5zM353 344q-2 0 -2 -2.5t2 -2.5h131v5h-131zM510 369h4v60h-2v0v0h-2v-60zM549 454h83q2 0 2 2.5t-2 2.5h-79zM510 455v0q1 -1 2 -1v0l1 1v0q1 2 0 3l-1 1q-2 1 -2 -2v-2zM392 459q-2 0 -2 -2.5t2 -2.5h82l-4 5h-78zM536 484h6l103 103q2 2 0.5 3.5t-3.5 -0.5zM481 484
h6l-105 105q-2 2 -3 1t-1 -2t1 -2z" />
    <glyph glyph-name="iconfontruzhu" unicode="&#xe641;" 
d="M155 715h660q17 0 28 11t11 28t-11 28.5t-28 11.5h-660q-17 0 -28.5 -11.5t-11.5 -28.5t11.5 -28t28.5 -11zM254 472q0 -46 33.5 -79.5t81.5 -33.5q47 0 81.5 33t34.5 80q0 -46 33.5 -79.5t81.5 -33.5q47 0 80.5 33t33.5 80q0 -57 48 -92q18 3 35 3q42 0 81 -14
q31 13 50 41t19 62l-82 208h-763l-79 -208q0 -46 33.5 -79.5t81.5 -33.5q47 0 81.5 33t34.5 80zM561 147q0 70 38 128q-38 1 -69 22t-45 55q-14 -34 -45.5 -55.5t-70.5 -21.5q-38 0 -69.5 21.5t-45.5 55.5q-14 -34 -45.5 -55.5t-70.5 -21.5q-18 0 -35 5v-255q0 -18 16 -35.5
t34 -17.5h485q-77 70 -77 175zM796.5 353q-84.5 0 -144.5 -59.5t-60 -144.5t60 -145t144.5 -60t144.5 60t60 145t-60 144.5t-144.5 59.5zM939 128h-122v-121h-41v121h-122v42h122v121h41v-121h122v-42z" />
    <glyph glyph-name="wodeqianbao" unicode="&#xe614;" 
d="M840 547h-28v100q0 23 -16 39.5t-40 16.5h-150l-20 31q-7 12 -19 15.5t-22 -3.5l-69 -43h-263h-4q-34 -1 -57 -30q-22 -28 -22 -66q0 -20 6 -37q-1 -3 -1 -5v-511q0 -23 16.5 -39.5t39.5 -16.5h649q24 0 40.5 16.5t16.5 39.5v437q0 23 -16.5 39.5t-40.5 16.5zM859 247
h-74q-16 0 -27 11t-11 27t11 27.5t27 11.5h74v-77zM756 666q8 0 13.5 -5.5t5.5 -13.5v-100h-72l-74 119h127zM557 710l102 -163h-345q-3 1 -7 1h-10zM181 650q13 15 29 15h97q3 0 5 1h103l-188 -117l-1 -1h-16q-16 0 -29 16q-14 17 -14 42.5t14 43.5zM840 35h-649
q-7 0 -12.5 5.5t-5.5 13.5v456q2 -1 4 -1h663q8 0 13.5 -5.5t5.5 -12.5v-130h-74q-31 0 -53.5 -22t-22.5 -53.5t22.5 -54t53.5 -22.5h74v-155q0 -8 -5.5 -13.5t-13.5 -5.5zM798.5 268q7.5 0 13 5t5.5 12.5t-5.5 13t-13 5.5t-12.5 -5.5t-5 -13t5 -12.5t12.5 -5z" />
    <glyph glyph-name="ruzhu" unicode="&#xe615;" 
d="M430 55h-149q-21 0 -36 15t-15 36v148q0 17 -11.5 29t-28.5 12t-28.5 -12t-11.5 -29v-148q0 -55 38.5 -93.5t93.5 -38.5h148q17 0 29 12t12 28q0 17 -12 29q-13 12 -29 12zM877 171h-86v87q0 14 -10.5 24t-24.5 10t-24 -10t-10 -24v-87h-88q-14 0 -24 -10t-10 -24.5
t10 -24.5t24 -10h87v-86q0 -14 10 -24t24 -10t24.5 10t10.5 24v86h86q14 0 24 10t10 24.5t-10 24.5q-8 10 -23 10zM926 458q0 6 -2 13l-75 269v0v0q-5 16 -14.5 26t-22.5 14t-21.5 4.5t-21.5 0.5v0h-510v0q-13 0 -21 -0.5t-20.5 -4.5t-22.5 -14t-16 -27v0v-1l-75 -258
q-2 -9 -1 -17v-6q0 -55 39 -94t94 -39q54 0 93 37q38 -37 92 -37t93 37q38 -37 93 -37q53 0 92 37q39 -37 93 -37q55 1 94.5 40t39.5 94v0v0zM845 413q-19 -27 -62 -27q-35 0 -78 44l-8 8l-7 -8q-16 -17 -40 -30.5t-43 -13.5t-45 14t-41 30l-7 8l-7 -8q-17 -17 -40.5 -30
t-42.5 -13t-45.5 14.5t-41.5 29.5l-7 8l-7 -8q-43 -45 -76 -45q-45 0 -65 28q-20 26 -6 69v1q1 2 1 3q3 6 4 11l63 199q5 12 14.5 17.5t16.5 6t20 0.5h1h437v0q27 0 37 -5.5t14 -17.5l64 -209q1 0 1.5 -2.5t0.5 -3.5t1 -2v0q13 -42 -6 -68z" />
    <glyph glyph-name="right" unicode="&#xe601;" 
d="M356 762q13 0 21 -9l306 -363q15 -18 0 -36l-293 -349q-7 -9 -18.5 -10t-20 6.5t-9.5 18.5t6 20l278 332l-291 345q-7 9 -6.5 20.5t9.5 18.5q8 6 18 6v0zM356 762z" />
    <glyph glyph-name="up" unicode="&#xe602;" 
d="M134 228q0 13 9 21l363 306q18 15 36 0l349 -293q9 -7 10 -18.5t-6.5 -20t-18.5 -9.5t-20 6l-332 278l-345 -291q-9 -7 -20.5 -6.5t-18.5 9.5q-6 8 -6 18v0zM134 228z" />
    <glyph glyph-name="down" unicode="&#xe603;" 
d="M912 540q0 -13 -10 -21l-363 -306q-18 -15 -35 0l-350 293q-9 7 -10 18.5t6.5 20t19 9.5t19.5 -6l332 -278l346 291q8 7 19.5 6.5t18.5 -9.5q7 -8 7 -18v0zM912 540z" />
    <glyph glyph-name="jinhuo" unicode="&#xe628;" horiz-adv-x="1220" 
d="M173 247q-6 -16 10 -21l312 -100q2 -1 4 -1q0 10 6 29l-309 100q-19 6 -23 -7zM482 475l-148 -28l50 -141l33 56l71 -40l32 56l-71 41zM498 372l-16 -28l-71 41l-17 -29l-32 75l81 10l-16 -28zM622 205q-35 0 -60 -24.5t-25 -59.5t25 -60t60 -25t60 25t25 60t-25 59.5
t-60 24.5zM622 70q-21 0 -36 15t-15 36t15 35.5t36 14.5t36 -14.5t15 -35.5t-15 -36t-36 -15zM990 581q-3 13 -22 10l-217 -36l-6 -20l-100 -300q16 -3 29 -10l101 300l203 38q14 2 12 18zM622 138q-7 0 -12 -5t-5 -12t5 -12t12 -5t12 5t5 12t-5 12t-12 5zM605 239l118 354
l-203 67l-34 -118l-34 17l34 118l-186 51l-136 -422l366 -112l7 7q22 24 53 32zM520 222l-322 101l119 371l135 -34l-33 -118l84 -34l34 118l153 -50l-119 -320q-23 -8 -51 -34z" />
    <glyph glyph-name="fenlei50" unicode="&#xe643;" 
d="M427 801h-250q-35 0 -59.5 -24.5t-24.5 -58.5v-668q0 -34 24.5 -58.5t59.5 -24.5h250q35 0 59.5 24.5t24.5 58.5v668q0 34 -24.5 58.5t-59.5 24.5zM177 760h250q17 0 29.5 -12.5t12.5 -29.5v-248h-334v248q0 17 12 29.5t30 12.5zM427 8h-250q-18 0 -30 12.5t-12 29.5v378
h334v-378q0 -17 -12.5 -29.5t-29.5 -12.5zM388 554q9 0 15 6t6 14v126q0 8 -6 14.5t-15 6.5t-15 -6.5t-6 -14.5v-126q0 -8 6 -14t15 -6zM388 345q-9 0 -15 -6t-6 -15v-167q0 -9 6 -15t15 -6t15 6t6 15v167q0 9 -6 15t-15 6zM847 387h-208q-35 0 -59.5 -24.5t-24.5 -59.5
v-125q0 -35 24.5 -59.5t59.5 -24.5h83v0v-83h-83q-9 0 -15 -6t-6 -15t6 -15t15 -6h208q9 0 15 6t6 15t-6 15t-15 6h-83v83v0h83q35 0 59.5 24.5t24.5 59.5v125q0 35 -24.5 59.5t-59.5 24.5zM889 178q0 -17 -12 -29.5t-30 -12.5h-208q-18 0 -30 12.5t-12 29.5v125
q0 17 12 29.5t30 12.5h208q18 0 30 -12.5t12 -29.5v-125z" />
    <glyph glyph-name="tuijian" unicode="&#xe622;" 
d="M834 538q-26 63 -74.5 111.5t-111.5 75.5q-65 27 -136 27t-136 -27q-63 -27 -111.5 -75.5t-74.5 -111.5q-28 -65 -28 -136t28 -136q26 -63 74.5 -111t111.5 -75q65 -27 136 -27t136 27q63 27 111.5 75t74.5 111q28 65 28 136t-28 136zM715.5 198.5
q-84.5 -84.5 -203.5 -84.5t-203.5 84.5t-84.5 204t84.5 204t203.5 84.5t203.5 -84.5t84.5 -204t-84.5 -204zM698 461l-116 17q-6 1 -8 6l-52 105q-3 6 -10 6t-10 -6l-52 -105q-2 -5 -8 -6l-116 -17q-7 -1 -9 -7.5t3 -11.5l84 -81q4 -4 3 -10l-20 -116q-1 -6 4.5 -10t11.5 -1
l104 54q5 3 10 0l104 -54q6 -3 11.5 1t4.5 10l-20 116q-1 6 3 10l84 81q5 5 3 11.5t-9 7.5z" />
    <glyph glyph-name="sanjiao-copy" unicode="&#xe647;" 
d="M0 83l512 602l512 -602h-1024z" />
    <glyph glyph-name="fenleir" unicode="&#xe629;" 
d="M148 766q-22 0 -37.5 -15.5t-15.5 -37t15.5 -37t37 -15.5t37 15.5t15.5 37t-15.5 37t-36.5 15.5v0zM315 682h586q13 0 22 9.5t9 22.5t-9 22t-22 9h-586q-13 0 -22 -9t-9 -22t9 -22.5t22 -9.5v0zM148 452q-22 0 -37.5 -15.5t-15.5 -37t15.5 -37t37 -15.5t37 15.5t15.5 37
t-15.5 37t-36.5 15.5v0zM901 431h-586q-13 0 -22 -9t-9 -22t9 -22.5t22 -9.5h586q13 0 22 9.5t9 22.5t-9 22t-22 9v0zM148 117q-22 0 -37.5 -15t-15.5 -37t15.5 -37t37 -15t37 15t15.5 37t-15.5 37t-36.5 15v0zM901 96h-586q-13 0 -22 -9t-9 -22t9 -22.5t22 -9.5h586
q13 0 22 9.5t9 22.5t-9 22t-22 9v0z" />
    <glyph glyph-name="164duihuanquan-copy" unicode="&#xe650;" 
d="M723 275h21v-43h-21v43zM723 338h21v-42h-21v42zM723 401h21v-42h-21v42zM723 465h21v-43h-21v43zM723 528h21v-42h-21v42zM512 528q-49 0 -88 -29.5t-53 -76.5h44q13 29 39 46.5t58 17.5t58 -17.5t39 -46.5h-44q-5 0 -8 -3t-3 -7v-21q0 -5 3 -8t8 -3h84q5 0 8 3t3 8v5
l-7 26q-14 47 -53 76.5t-88 29.5zM512 275q-32 0 -58 17.5t-39 45.5h44q5 0 8 3t3 8v21q0 4 -3 7t-8 3h-84q-5 0 -8 -3t-3 -7v-5l7 -27q14 -46 53 -76t88 -30t88 30t53 76h-44q-13 -28 -39 -45.5t-58 -17.5zM280 275h21v-43h-21v43zM280 338h21v-42h-21v42zM280 401h21v-42
h-21v42zM280 465h21v-43h-21v43zM280 528h21v-42h-21v42zM945 475h16v146q0 32 -23 54.5t-56 22.5h-741q-32 0 -55 -22.5t-23 -54.5v-145h15q37 0 63 -27t26 -64.5t-26 -64.5t-63 -27h-15v-145q0 -32 23 -54.5t55 -22.5h741q33 0 56 22.5t23 54.5v145h-16q-37 0 -63 27
t-26 64.5t26 64t63 26.5zM826 384.5q0 -46.5 30 -81t74 -40.5v-115q0 -19 -14 -32.5t-34 -13.5h-741q-19 0 -33 13.5t-14 32.5v115q44 6 74 40.5t30 81t-30 80.5t-74 40v116q0 19 14 32.5t33 13.5h741q20 0 34 -13.5t14 -32.5v-116q-44 -6 -74 -40t-30 -80.5z" />
    <glyph glyph-name="wuliuxinxi" unicode="&#xe638;" 
d="M93 305h345q12 0 19.5 8t7.5 18q0 12 -8 19t-19 7h-344q-3 1 -5 1q-8 0 -15 -7.5t-7 -16.5q0 -12 8 -20.5t18 -8.5zM93 452h345q12 0 19.5 8t7.5 18q0 12 -8 19.5t-19 7.5h-344h-4q-9 0 -16 -7t-7 -17q0 -11 8 -20t18 -9zM143 599h345q12 0 19.5 8t7.5 19q0 12 -8 19
t-19 7h-344q-3 1 -5 1q-10 0 -16 -7.5t-6 -16.5q0 -13 7.5 -21.5t18.5 -8.5zM955 366q-1 2 -1 3v1l-195 275q-7 7 -20 7h-100v98q0 11 -8 18.5t-19 7.5h-395q-12 0 -19 -8t-7 -18.5t7 -18.5t19 -8h366v-389q0 -12 8 -19t18 -7h293v-166h-49q-9 42 -44 69.5t-79 27.5
t-78.5 -27.5t-44.5 -69.5h-196q-10 42 -44.5 69.5t-78.5 27.5t-78.5 -27.5t-44.5 -69.5h-72q-12 0 -19 -8t-7 -18q0 -12 8 -19.5t18 -7.5h75q9 -42 44 -69.5t79 -27.5t78.5 27.5t44.5 69.5h196q10 -42 44.5 -69.5t78.5 -27.5t79 27.5t44 69.5h75q12 0 19 8t7 19v244
q0 3 -2 6zM639 360v239h87l170 -239h-257zM804 113q0 -30 -20.5 -50.5t-50.5 -20.5t-50.5 20.5t-20.5 50.5t20.5 50.5t50.5 20.5t50.5 -20.5t20.5 -50.5zM362 113q0 -30 -20.5 -50.5t-50.5 -20.5t-50.5 20.5t-20.5 50.5t20.5 50.5t50.5 20.5t50.5 -20.5t20.5 -50.5z" />
    <glyph glyph-name="fenlei47" unicode="&#xe645;" 
d="M644 341h-270q-8 0 -14 -6t-6 -14.5t6 -14.5t14 -6h270q9 0 15 6t6 14.5t-6 14.5t-15 6zM886 421q24 21 24 52q0 27 -19.5 47t-47.5 20h-22l-16 50q-17 57 -66 80q-25 12 -47 12h-70v10q0 21 -12.5 36t-30.5 15h-129q-18 0 -30.5 -15t-12.5 -36v-10h-81q-21 0 -46 -12
q-49 -23 -67 -80l-15 -50h-19q-28 0 -47.5 -20t-19.5 -47q0 -30 22 -50q-42 -35 -42 -91v-126q0 -5 1 -9q4 -13 19 -24v-79q0 -26 18.5 -44.5t44.5 -18.5h44q25 0 43.5 18.5t18.5 44.5v36q16 -2 37 -3q72 -5 191 -5t191 5q21 1 38 3v-36q0 -26 18 -44.5t44 -18.5h44
q26 0 44 18.5t18 44.5v80q16 11 20 24q1 4 1 8v126q0 55 -41 89zM843 498q10 0 17.5 -7.5t7.5 -17.5q0 -9 -5.5 -16t-13.5 -9l-16 50h10zM449 692q0 2 0.5 5t0.5 3.5v0.5l127 1q3 -2 3 -10v-10h-131v10zM253 578q12 39 44 55v0q17 7 29 7h366q13 0 29 -7q32 -16 44 -55
l40 -130h-591zM179 498h6l-15 -49q-16 6 -16 24q0 10 7.5 17.5t17.5 7.5zM239 94q0 -9 -6 -15t-14 -6h-44q-9 0 -15 6t-6 15v60l14 -4q25 -8 57 -13l14 -4v-39zM865 94q0 -9 -6 -15t-15 -6h-44q-8 0 -14 6t-6 15v39l14 4q32 5 57 13l14 4v-60zM885 210q-4 -4 -13 -8l-87 -24
q-36 -6 -88 -9q-70 -6 -187.5 -6t-188.5 6q-51 3 -87 9l-87 24q-10 4 -13 8v122q0 28 17 48.5t42 25.5h2h5q2 1 4 1h610q30 0 50.5 -22t20.5 -53v-122zM774.5 377q-29.5 0 -50.5 -21t-21 -50.5t21 -50.5t50.5 -21t50.5 21t21 50.5t-21 50.5t-50.5 21zM774.5 275
q-12.5 0 -21 9t-8.5 21.5t8.5 21t21 8.5t21.5 -8.5t9 -21t-9 -21.5t-21.5 -9zM610 261h-202q-8 0 -14.5 -6t-6.5 -14.5t6.5 -15t14.5 -6.5h202q9 0 15 6.5t6 15t-6 14.5t-15 6zM244 377q-30 0 -51 -21t-21 -50.5t21 -50.5t51 -21t51 21t21 50.5t-21 50.5t-51 21zM243.5 275
q-12.5 0 -21 9t-8.5 21.5t8.5 21t21 8.5t21.5 -8.5t9 -21t-9 -21.5t-21.5 -9z" />
    <glyph glyph-name="kongxinwujiaoxing" unicode="&#xe71f;" 
d="M1022 514l-305 49l-193 302l-177 -288l-345 -63l249 -264l-27 -190l-31 -148l332 154l313 -154h10l-55 347q155 172 229 255zM820 -55l-294 145l-303 -140l22 106l1 1l28 201l-228 242l315 57l163 266l179 -280l276 -44q-58 -65 -202 -226l-7 -7l50 -321v0z" />
    <glyph glyph-name="zhuanrangzhuanqujihuo01" unicode="&#xe68a;" horiz-adv-x="1060" 
d="M526 615q-28 0 -51 -21l-159 -159q-21 -21 -21 -51q0 -29 21 -52l159 -158q21 -21 51 -21q28 0 52 21l158 158q21 21 21 52q0 28 -21 51l-158 159q-21 21 -52 21v0zM986 364q0 1 0.5 2.5t0.5 2.5h-2q-7 15 -23 15q-10 0 -16.5 -6.5t-8.5 -15.5h-2q-5 -106 -60.5 -194.5
t-147 -140t-198.5 -51.5q-132 0 -237 76t-148 197v0q-2 13 -12.5 22.5t-24.5 9.5q-15 0 -26 -11t-11 -26q0 -4 1 -8l-0.5 -2t-0.5 -3v-153q0 -11 7.5 -18t18 -7t18 7t7.5 18v96q58 -113 167.5 -181t240.5 -68q118 0 219.5 56t164.5 153t72 214q2 5 2 10q0 1 -1 6v0v0z
M101 423q18 0 24 17v0q21 150 135.5 250.5t268.5 100.5q124 0 225.5 -68.5t149.5 -179.5h1q10 -13 25 -13q13 0 22.5 9t9.5 23l-0.5 1.5t-0.5 2.5h1v149q0 11 -7.5 18t-18 7t-18 -7t-7.5 -18v-79q-63 95 -164 150.5t-218 55.5q-113 0 -211.5 -51.5t-162 -140.5t-79.5 -199v0
v-1v-2q0 -10 7.5 -17.5t17.5 -7.5v0v0z" />
    <glyph glyph-name="qita" unicode="&#xe69d;" horiz-adv-x="1028" 
d="M316.5 404q-72.5 0 -124 51.5t-51.5 124t51.5 124t124 51.5t124 -51.5t51.5 -124t-51.5 -124t-124 -51.5zM317 715q-56 0 -96 -40t-40 -96t40 -95.5t96 -39.5t95.5 39.5t39.5 95.5t-39.5 96t-95.5 40zM316.5 13q-72.5 0 -124 51.5t-51.5 124t51.5 124t124 51.5t124 -51.5
t51.5 -124t-51.5 -124t-124 -51.5zM317 324q-56 0 -96 -39.5t-40 -95.5t40 -96t96 -40t95.5 40t39.5 96t-39.5 95.5t-95.5 39.5v0zM710.5 404q-72.5 0 -124 51.5t-51.5 124t51.5 124t123.5 51.5h1q41 0 78 -19q10 -5 10 -17q0 -8 -6 -14t-14 -6q-5 0 -9 2q-27 14 -59 14h-1
q-56 0 -95.5 -40t-39.5 -96t39.5 -95.5t95.5 -39.5t96 39.5t40 95.5q0 35 -16 65q-2 3 -2 9q0 8 5.5 14t14.5 6q11 0 17 -11q21 -38 21 -83q0 -72 -51.5 -123.5t-124 -51.5zM710.5 13q-72.5 0 -124 51.5t-51.5 124t51.5 124t124 51.5t124 -51.5t51.5 -124t-51.5 -124
t-124 -51.5zM710 324q-56 0 -95.5 -39.5t-39.5 -95.5t39.5 -96t95.5 -40t96 40t40 96t-40 95.5t-96 39.5v0z" />
    <glyph glyph-name="xianshi" unicode="&#xe648;" 
d="M473 549v-252l142 -142l28 29l-129 130v235h-41zM889 600l-33 -23q73 -106 73 -236q0 -113 -56 -209t-152.5 -152t-209.5 -56t-209.5 56t-152.5 152t-56 209q0 111 53.5 205t145 151t200.5 62l-56 -57l29 -29l101 102l-101 101l-29 -29l48 -48q-119 -7 -218 -69.5
t-156.5 -165.5t-57.5 -223q0 -93 36.5 -178t98 -146t146.5 -97.5t178 -36.5t178 36.5t146.5 97.5t98 146t36.5 178q-1 143 -81 259z" />
    <glyph glyph-name="dianpujieshao" unicode="&#xe6c2;" 
d="M285 560h450q10 0 17 6.5t7 16t-7 16.5t-17 7h-450q-11 0 -18 -7t-7 -16.5t7 -16t18 -6.5zM735 436h-450q-11 0 -18 -6.5t-7 -16.5t7 -16.5t18 -6.5h450q10 0 17 6.5t7 16.5t-7 16.5t-17 6.5zM765 833h-510q-45 0 -76.5 -31.5t-31.5 -76.5v-680q0 -45 31.5 -77t76.5 -32
h339l279 284v505q0 45 -32 76.5t-76 31.5zM620 32v96q0 25 18 43.5t43 18.5h96zM826 241v-2l-3 -3h-142q-44 0 -76 -31.5t-32 -76.5v-140v-2l-3 -3h-315q-26 0 -44 18t-18 44v680q0 25 18 43.5t44 18.5h510q25 0 43 -18.5t18 -43.5v-484z" />
    <glyph glyph-name="jiaoyu" unicode="&#xe64e;" 
d="M266 -33q0 -13 -9.5 -22.5t-22.5 -9.5h-138q-13 0 -22.5 9.5t-9.5 22.5v671q0 13 9.5 22.5t22.5 9.5h138q13 0 22.5 -9.5t9.5 -22.5v-671zM232 601q0 13 -9.5 22.5t-22.5 9.5h-69q-13 0 -22.5 -9.5t-9.5 -22.5v-4q0 -13 9.5 -22.5t22.5 -9.5h69q13 0 22.5 9.5t9.5 22.5v4
zM329 799q0 13 9.5 22.5t22.5 9.5h136q13 0 22.5 -9.5t9.5 -22.5v-832q0 -13 -9.5 -22.5t-22.5 -9.5h-136q-13 0 -22.5 9.5t-9.5 22.5v832zM499 764q0 14 -9 23t-23 9h-72q-13 0 -22.5 -9t-9.5 -23v-5q0 -14 9.5 -23t22.5 -9h72q14 0 23 9t9 23v5zM953 26q4 -12 -2 -24
t-19 -16l-131 -43q-12 -4 -24 2t-16 19l-208 637q-4 13 2 25t19 16l131 42q12 4 24 -2t16 -18zM724 618q-4 12 -16 18t-25 2l-65 -21q-12 -4 -18 -16t-2 -24l1 -4q4 -12 16 -18.5t24 -1.5l65 21q13 4 19 15.5t2 24.5zM714 648z" />
    <glyph glyph-name="huodong01" unicode="&#xe672;" 
d="M560 433l-50 107l-50 -107l-115 -15l85 -87l-19 -112l99 56l98 -56l-18 112l85 86zM510.5 830q-90.5 0 -173 -35t-142 -94.5t-95 -142t-35.5 -173t35.5 -173t95 -142.5t142 -95t173 -35t173 35t142 95t95 142.5t35.5 173t-35.5 173t-95 142t-142 94.5t-173 35zM672 124
l-162 89l-162 -89l31 189l-130 133l180 28l81 172l82 -172l180 -28l-131 -133z" />
    <glyph glyph-name="sousuo-sousuo" unicode="&#xe64a;" 
d="M691.5 646.5q-91.5 91.5 -221 91.5t-221 -91.5t-91.5 -221t91.5 -221.5t221 -92t221 92t91.5 221.5t-91.5 221zM181.5 136q-56.5 57 -88 131.5t-31.5 157.5q0 111 54.5 205.5t149 149t205.5 54.5t205 -54.5t149 -149t55 -205.5q0 -83 -31.5 -157.5t-88.5 -131.5
t-131.5 -88.5t-157.5 -31.5t-158 31.5t-131.5 88.5zM946 -50q-17 -16 -40 -16t-39 16l-79 79q-17 17 -17 40t16.5 39.5t39.5 16.5t40 -17l79 -79q16 -16 16 -39t-16 -40v0z" />
    <glyph glyph-name="qianbao1" unicode="&#xe652;" 
d="M580 383q0 -34 24.5 -57.5t59 -23.5t58.5 23.5t24 57.5q0 35 -24 59.5t-59 24.5q-34 0 -58.5 -24.5t-24.5 -59.5zM663 415q14 0 23 -9t9 -22t-9 -22t-22.5 -9t-22.5 9t-9 22t9.5 22t21.5 9zM913 495v146q0 59 -41 100t-100 41h-520q-59 0 -100 -41t-41 -100v-516
q0 -58 41 -99.5t100 -41.5h520q59 0 100 41.5t41 99.5v370zM768 45h-511q-35 0 -60 24.5t-25 59.5v508q0 35 25 59.5t60 24.5h511q35 0 59.5 -24.5t24.5 -59.5v-96h-196q-65 0 -111 -46t-46 -111t46 -111t111 -46h196v-98q0 -35 -24.5 -59.5t-59.5 -24.5v0zM852 279h-193
q-43 0 -74 31t-31 74t31 74t74 31h193v-210z" />
  </font>
</defs>
</svg>
